<svg xmlns="http://www.w3.org/2000/svg" xmlns:xlink="http://www.w3.org/1999/xlink" width="533" height="411">
  <defs>
    <linearGradient id="b" x1="50%" x2="50%" y1="162.403%" y2="0%">
      <stop offset="0%" stop-color="#FFF" stop-opacity="0"/>
      <stop offset="100%" stop-color="#E9F1F9"/>
    </linearGradient>
    <path id="c" d="M531.965 0c6.22 22.246-16.748 48.807-38.023 56.591-35.824 13.108-63.526 12.072-88.853 23.703-25.566 11.742-86.671 42.915-122.569 42.915-91.094 0-125.879-15.919-185.972-42.915C31.77 51.194-8.784 65.48 1.624 0h530.341z"/>
    <linearGradient id="d" x1="50%" x2="50%" y1="95.595%" y2="0%">
      <stop offset="0%" stop-color="#FFF" stop-opacity="0"/>
      <stop offset="100%" stop-color="#F7FAFE"/>
    </linearGradient>
    <path id="a" d="M57 0h264c6.627 0 12 5.373 12 12v259c0 9.389-7.611 17-17 17H62c-9.389 0-17-7.611-17-17V12c0-6.627 5.373-12 12-12z"/>
    <mask id="e" width="288" height="288" x="0" y="0" fill="#fff">
      <use xlink:href="#a"/>
    </mask>
  </defs>
  <g fill="none" fill-rule="evenodd">
    <use fill="url(#b)" transform="translate(0 287)" xlink:href="#c"/>
    <g transform="translate(71)">
      <use fill="url(#d)" stroke="#D0D3D6" stroke-dasharray="5 5" stroke-linejoin="bevel" stroke-width="4" mask="url(#e)" xlink:href="#a"/>
      <g transform="matrix(-1 0 0 1 93 104)">
        <path fill="#0066D0" d="M33.303 52.519L45 82.727 34.303 86l-8.227-31.507L25 36.729 31.348 36z"/>
        <path fill="#242424" d="M56 116l-5.309 52.685L52.459 215H34.166l-.983-3.447 12.54-1.641-6.689-41.01-6.034-51L56 116"/>
        <path fill="#3D3D3D" d="M61.315 115l4.096 44.604L93 195.881 89.707 213H81.47l4.941-3.668.825-11.005-26.353-29.347L37 116.401 61.315 115"/>
        <path fill="#007CFF" d="M12.506 43l5.696 1.889a45.456 45.456 0 0 0 11.264 17.754L40.13 73.017l13.123 8.878L63 118.117 32.501 121l-1.007-39.914L20.17 66.908A45.49 45.49 0 0 1 11 46.856L12.506 43"/>
        <path fill="#F1B9BA" d="M18 47.297L10.705 50 6 24.191 7.415 22 18 47.297"/>
        <path fill="#006DE0" d="M20 46.394L10.692 51s-1.908-1.696-1.672-2.666c.24-.97.717-1.698 1.433-2.183.716-.485 7.878-3.151 7.878-3.151L20 46.394"/>
        <path fill="#F1B9BA" d="M25.292 36.673V23.424l3.93-.424L31 36.25z"/>
        <circle cx="27.5" cy="22.5" r="4.5" fill="#F1B9BA"/>
        <g fill-rule="nonzero">
          <path fill="#6288B0" d="M21.318 7.564C28.472 3.6 34.74 1.867 36.182 4.47c1.443 2.603-3.346 7-10.5 10.966-7.154 3.965-13.421 5.697-14.864 3.094-1.443-2.603 3.346-7 10.5-10.966zm12.667-1.646a.078.078 0 0 0 .015.008.403.403 0 0 0-.004-.001l-.01-.007zm-.491-.055c-.618-.008-1.507.139-2.587.437-2.323.642-5.294 1.914-8.304 3.582-3.01 1.669-5.662 3.514-7.438 5.144-.825.758-1.42 1.434-1.742 1.962a3.33 3.33 0 0 0-.082.143c.05.004.106.006.165.006.618.008 1.507-.139 2.587-.437 2.323-.642 5.294-1.914 8.304-3.582 3.01-1.669 5.662-3.514 7.438-5.144.825-.758 1.42-1.434 1.742-1.962.03-.05.058-.098.082-.143a3.127 3.127 0 0 0-.165-.006z"/>
          <path fill="#638BB4" d="M11.87 17.03c.616-.403 1.43-.205 1.817.441.386.646.2 1.496-.418 1.898L3.131 25.97c-.617.402-1.431.204-1.818-.442-.386-.646-.2-1.496.418-1.898l10.138-6.602z"/>
        </g>
        <path fill="#F1B9BA" d="M11.533 20.954c-.076-.047-2.194.24-2.273 0l-1.024-3.269-4.765 3.269.567 3.913L9.066 26l3.133-4.157-.666-.89zM61.132 65.26c-2.29 5.155-9.707 10.458-14.95 8.208-5.246-2.247-6.337-11.199-4.047-16.354 2.29-5.156 8.397-7.51 13.643-5.262 5.246 2.25 7.644 8.252 5.354 13.408"/>
        <path fill="#F1B9BA" d="M46.252 55.344a32.008 32.008 0 0 0-2.967-1.941c-.735-.424-1.894-.686-2.22.118-.16.397.007.847.176 1.241.558 1.322 1.17 2.71 2.31 3.533a3.75 3.75 0 0 0 3.356.517c1.006-.34 1.992-1.133 2.093-2.208-1.01-.204-1.902-.638-2.748-1.26"/>
        <path fill="#342C6E" d="M48 74.836c4.894 1.143 11.144-3.88 13.171-8.784 2.187-5.283-.103-11.434-5.115-13.74-.304-.138-.617-.205-.922-.312-.574.642-1.038 1.403-1.245 2.127-.806 2.821-.193 6.156 1.499 8.501 0 0-5.669 11.263-7.388 12.208"/>
        <path fill="#F1B9BA" d="M56.027 64.342c.752.405 1.333 1.109 1.695 1.898 1.177 2.555-1.615 5.062-3.997 4.73-.77-.108-1.498-.427-2.17-.835-.579-.352-1.145-.804-1.404-1.445-.25-.624-.17-1.35.102-1.962.272-.613.72-1.121 1.206-1.571 1.108-1.019 3.208-1.55 4.568-.815"/>
        <path fill="#F4F4F4" d="M51.793 56.126c-1.974 1.278-4.376 1.138-5.366-.312-.993-1.452-.195-3.662 1.777-4.94 1.975-1.278 4.376-1.138 5.37.312.992 1.449.194 3.66-1.78 4.94"/>
      </g>
      <path fill="#242424" d="M338.772 222l8.99 13.956 8.745 26.743L383 304.907 378.951 306l-31.554-34.99L332 241.481 338.772 222"/>
      <path fill="#007CFF" d="M283.901 240L251 295.456l4.278 1.544L295 245.709 283.901 240"/>
      <path fill="#F1B9BA" d="M269.599 227.147c5.906.984 13.285 7.2 12.314 13.189-.97 5.991-9.925 9.481-15.831 8.5-5.907-.984-9.908-6.639-8.937-12.628.97-5.988 6.547-10.045 12.454-9.06"/>
      <path fill="#F1B9BA" d="M263.232 246.176a34.118 34.118 0 0 0-1.117 3.556c-.224.865-.181 2.124.676 2.26.42.062.81-.224 1.149-.497 1.128-.909 2.309-1.89 2.814-3.275a4.243 4.243 0 0 0-.354-3.598c-.58-.95-1.593-1.768-2.652-1.6.059 1.094-.13 2.124-.516 3.154"/>
      <path fill="#35307A" d="M282 239c-.168-5.542-6.932-10.943-12.434-11.853-5.929-.981-11.527 3.062-12.501 9.03-.057.36-.044.71-.065 1.07.801.447 1.693.749 2.484.783 3.068.135 6.27-1.38 8.185-3.796 0 0 12.915 3.166 14.331 4.766"/>
      <path fill="#F1B9BA" d="M269.072 232.15c.198-.95.725-1.789 1.388-2.41 2.139-2.01 5.228.42 5.51 3.171.091.887-.033 1.79-.253 2.648-.19.744-.48 1.5-1.028 1.963-.53.45-1.244.56-1.895.423-.65-.135-1.251-.498-1.798-.92-1.251-.957-2.282-3.155-1.924-4.874"/>
      <path fill="#007CFF" d="M282.781 268.283L262 304.633l4.74.367 26.614-27.171 3.646-34.88s0-10.65-4.74-9.912c-4.74.733-6.927 6.609-6.927 6.609l-2.552 28.637"/>
      <path fill="#007CFF" d="M283 233.173C304.616 222.365 329.22 219 329.22 219L341 242.266 287.926 251 283 233.173"/>
      <path fill="#242424" d="M329.131 219.124l3.35-.114c9.04-.307 16.532 6.823 16.519 15.717l-17.818 31.698L334.43 312h-4.85L319 268.966l10.131-49.842"/>
      <g fill="#6288B0" fill-rule="nonzero">
        <path d="M258.674 300.798a1.5 1.5 0 1 1-.112 2.998l-17.2-.647a1.5 1.5 0 0 1 .114-2.998l17.198.647z"/>
        <path d="M227.255 305.282c-9.115-2.443-15.722-6.076-14.829-9.409.893-3.333 8.432-3.176 17.547-.734 9.115 2.443 15.722 6.076 14.829 9.409-.894 3.333-8.432 3.176-17.547.734zm-11.74-8.581c.056.067.124.142.204.223.51.512 1.37 1.114 2.51 1.74 2.45 1.349 5.95 2.687 9.803 3.72 3.852 1.032 7.552 1.622 10.349 1.68 1.3.028 2.346-.064 3.043-.253.11-.03.206-.06.288-.09a3.295 3.295 0 0 0-.203-.224c-.51-.512-1.37-1.114-2.51-1.741-2.451-1.348-5.95-2.687-9.803-3.719-3.852-1.032-7.552-1.623-10.349-1.68-1.3-.028-2.346.063-3.043.252-.11.03-.206.06-.289.092z"/>
      </g>
      <path fill="#F1B9BA" d="M258 299.5a5.5 5.5 0 1 1-11 0 5.5 5.5 0 0 1 11 0m13 6a5.5 5.5 0 1 1-11 0 5.5 5.5 0 1 1 11 0"/>
      <path fill="#007DA7" d="M333.122 312l.878 4.493-23 .507s1.277-3.287 2.043-3.032c.767.25 15.291-1.968 15.291-1.968h4.788m50.703-8l2.175 4.54-20 .46.492-2.279 13.431-1.737 3.902-.984"/>
    </g>
    <path fill="#007CFF" d="M112.964 179.708l-2.25 7.296 12.891-6.121c-1.753-.599-3.416-1.572-4.989-2.92-1.573-1.347-3.457-.766-5.652 1.745z"/>
    <path fill="#E0E6EF" d="M196.776 143.2h15.912v-24.48h-.144s-1.008 2.52-3.168 5.688l-12.6 18.792zm31.824 7.56h-6.624V163h-9.504v-12.24h-25.128v-6.984l23.4-34.128h11.232v33.48h6.624v7.632zm7.128-14.256c0-18.576 8.208-27.576 20.664-27.576 13.032 0 20.88 8.856 20.88 27.576 0 18.576-7.992 27.576-20.88 27.576-13.104 0-20.664-8.928-20.664-27.576zm20.664 20.088c6.192 0 10.224-6.12 10.224-20.016 0-14.184-4.104-20.232-10.224-20.232s-10.152 5.832-10.152 20.232c0 14.4 3.816 20.016 10.152 20.016zm37.08-13.392h15.912v-24.48h-.144s-1.008 2.52-3.168 5.688l-12.6 18.792zm31.824 7.56h-6.624V163h-9.504v-12.24H284.04v-6.984l23.4-34.128h11.232v33.48h6.624v7.632z"/>
  </g>
</svg>
