<?xml version="1.0" encoding="utf-8"?>
<svg width="44px" height="51px" viewBox="0 0 44 51" version="1.1" xmlns:xlink="http://www.w3.org/1999/xlink" xmlns="http://www.w3.org/2000/svg">
  <desc>Created with Lunacy</desc>
  <g id="Group-14" transform="translate(0.8730469 0.8730469)">
    <g id="Group-14">
      <g id="Group-12">
        <path d="M1.13634 20.4918L5.86747 18.7779C6.28569 18.6264 6.79062 18.8238 6.99526 19.2187L9.27737 23.6229C9.58446 24.2156 10.0333 24.1932 10.2799 23.5729C12.0057 19.2321 18.144 3.79254 18.144 3.79254C18.144 3.79254 8.31059 0 8.31059 0L0.446509 19.7804C0.199909 20.4006 0.508755 20.7192 1.13634 20.4918Z" transform="translate(6.363281 23.62402)" id="Fill-111" fill="#7790F1" stroke="none" />
        <path d="M17.0077 20.4918L12.2766 18.7779C11.8584 18.6264 11.3535 18.8238 11.1489 19.2187L8.86672 23.6229C8.55963 24.2156 8.11077 24.1932 7.86416 23.5729C6.13837 19.2321 0 3.79254 0 3.79254C0 3.79254 9.83332 0 9.83332 0L17.6975 19.7804C17.9441 20.4006 17.6352 20.7192 17.0077 20.4918Z" transform="translate(18.02344 23.62402)" id="Fill-112" fill="#6A83E6" stroke="none" />
        <g id="Group-15">
          <g id="Group-16">
            <path d="M16.5057 34.3017L15.6089 34.903C14.99 35.3178 14.1536 35.1514 13.7406 34.5313L13.1421 33.6327C12.5914 32.8057 11.3552 32.2937 10.381 32.489L9.32241 32.7013C8.59192 32.8477 7.88281 32.3739 7.73857 31.643L7.52955 30.5837C7.3372 29.6089 6.39106 28.6628 5.4163 28.4705L4.35703 28.2614C3.62609 28.1172 3.15228 27.4081 3.29874 26.6776L3.51099 25.619C3.70631 24.6448 3.19426 23.4086 2.36731 22.8579L1.46866 22.2594C0.848556 21.8464 0.682176 21.01 1.09704 20.3911L1.69825 19.4943C2.2515 18.669 2.2515 17.331 1.69825 16.5057L1.09704 15.6089C0.682176 14.99 0.848556 14.1536 1.46866 13.7406L2.36731 13.1421C3.19426 12.5914 3.70631 11.3552 3.51099 10.381L3.29874 9.32241C3.15228 8.59192 3.62609 7.88281 4.35703 7.73857L5.4163 7.52955C6.39106 7.3372 7.3372 6.39106 7.52955 5.4163L7.73857 4.35703C7.88281 3.62609 8.59192 3.15228 9.32241 3.29874L10.381 3.51099C11.3552 3.70631 12.5914 3.19426 13.1421 2.36731L13.7406 1.46866C14.1536 0.848556 14.99 0.682176 15.6089 1.09704L16.5057 1.69825C17.331 2.2515 18.669 2.2515 19.4943 1.69825L20.3911 1.09704C21.01 0.682176 21.8464 0.848556 22.2594 1.46866L22.8579 2.36731C23.4086 3.19426 24.6448 3.70631 25.619 3.51099L26.6776 3.29874C27.4081 3.15228 28.1172 3.62609 28.2614 4.35703L28.4705 5.4163C28.6628 6.39106 29.6089 7.3372 30.5837 7.52955L31.643 7.73857C32.3739 7.88281 32.8477 8.59192 32.7013 9.32241L32.489 10.381C32.2937 11.3552 32.8057 12.5914 33.6327 13.1421L34.5313 13.7406C35.1514 14.1536 35.3178 14.99 34.903 15.6089L34.3017 16.5057C33.7485 17.331 33.7485 18.669 34.3017 19.4943L34.903 20.3911C35.3178 21.01 35.1514 21.8464 34.5313 22.2594L33.6327 22.8579C32.8057 23.4086 32.2937 24.6448 32.489 25.619L32.7013 26.6776C32.8477 27.4081 32.3739 28.1172 31.643 28.2614L30.5837 28.4705C29.6089 28.6628 28.6628 29.6089 28.4705 30.5837L28.2614 31.643C28.1172 32.3739 27.4081 32.8477 26.6776 32.7013L25.619 32.489C24.6448 32.2937 23.4086 32.8057 22.8579 33.6327L22.2594 34.5313C21.8464 35.1514 21.01 35.3178 20.3911 34.903L19.4943 34.3017C18.669 33.7485 17.331 33.7485 16.5057 34.3017Z" transform="matrix(0.9816272 0.190809 -0.190809 0.9816272 6.869141 0)" id="Star" fill="#EEB960" stroke="none" />
            <path d="M28.8 14.3999C28.8 6.44702 22.353 0 14.4001 0C6.44702 0 0 6.44702 0 14.3999C0 22.3527 6.44702 28.8 14.4001 28.8C22.353 28.8 28.8 22.3527 28.8 14.3999" transform="translate(6.703125 6.704102)" id="Fill-114" fill="#F8D370" stroke="none" />
            <path d="M7.79101 3.59844L6.28414 0.337354C6.17251 0.112451 6.00508 0 5.78184 0C5.5586 0 5.39117 0.112451 5.27955 0.337354L3.77267 3.59844L0.535672 3.59844C0.31243 3.59844 0.0891892 3.71089 0.0333788 3.93579C-0.0224315 4.1607 -0.0224315 4.3856 0.144999 4.55428L2.54484 7.08443L1.59607 11.0202C1.54026 11.2451 1.59607 11.47 1.81931 11.5825C1.98674 11.6949 2.26579 11.7512 2.43322 11.6387L5.83765 9.67081L9.24208 11.6387C9.3537 11.6949 9.40951 11.6949 9.52113 11.6949C9.63276 11.6949 9.74438 11.6387 9.856 11.5825C10.0234 11.47 10.135 11.1889 10.0792 11.0202L9.13046 7.08443L11.5303 4.55428C11.6977 4.3856 11.7535 4.1607 11.6419 3.93579C11.5303 3.71089 11.2513 3.59844 11.028 3.59844L7.79101 3.59844Z" transform="translate(15.70313 15.7041)" id="Shape-Copy-3" fill="#FFFFFF" stroke="none" />
            <path d="M0 13.0499C0 20.2455 5.85445 26.1 13.0501 26.1C20.2458 26.1 26.1 20.2455 26.1 13.0499C26.1 5.85417 20.2458 0 13.0501 0C5.85445 0 0 5.85417 0 13.0499ZM1.01172 13.05C1.01172 6.41205 6.41205 1.01172 13.0503 1.01172C19.6883 1.01172 25.0886 6.41205 25.0886 13.05C25.0886 19.688 19.6883 25.0886 13.0503 25.0886C6.41205 25.0886 1.01172 19.688 1.01172 13.05Z" transform="translate(8.054688 8.053711)" id="Fill-115" fill="#EEB960" fill-rule="evenodd" stroke="none" />
          </g>
        </g>
      </g>
    </g>
  </g>
</svg>