<svg width="24" height="24" xmlns="http://www.w3.org/2000/svg">
    <g fill="none" fill-rule="evenodd" opacity=".4">
        <path d="M0 0h24v24H0z"/>
        <path d="M12 20.571c-2.143 0-4.1-.796-5.604-2.1.007-.012.016-.021.022-.032 1.416-2.373.526-3.822-.132-4.475a6.099 6.099 0 0 0-.575-.487c-.533-.414-.886-.688-.886-1.477 0-.372.207-.518 1.232-.867.704-.241 1.502-.514 2.017-1.18 1.196-1.546-.118-3.93-.395-4.394a7.77 7.77 0 0 0-.454-.673 8.524 8.524 0 0 1 4.48-1.443c.266.454.708.836 1.141 1.21.37.318.958.451 1.26.83.174.215.09.632.096.904.012.541.34 1.326 1.443 1.326.05 0 .1-.001.153-.006.427-.03 1.759-.335 3.098-.777A8.516 8.516 0 0 1 20.57 12c0 4.726-3.845 8.571-8.571 8.571m0-18.857C6.328 1.714 1.714 6.328 1.714 12S6.328 22.286 12 22.286 22.286 17.672 22.286 12 17.672 1.714 12 1.714" fill="#122B46"/>
        <path d="M15.012 9.346c-1.35 0-2.73.642-3.431 1.597-.47.64-.608 1.383-.387 2.088.442 1.407.485 2.237.209 3.167-.246.826-.27 2.024 1.13 2.595.264.108.553.163.86.163 1.04 0 2.272-.644 3.38-1.767 1.332-1.35 2.115-3.004 2.096-4.427-.025-1.915-1.72-3.416-3.857-3.416" fill="#122B46"/>
    </g>
</svg>