<svg xmlns="http://www.w3.org/2000/svg" width="160" height="160">
    <g fill="none" fill-rule="evenodd">
        <path fill="#F7FAFE" d="M0 0h160v160H0z"/>
        <g fill="#C0C7CF">
            <path d="M53.333 46.667c-5.513 0-10 4.486-10 10 0 5.513 4.487 10 10 10 5.514 0 10-4.487 10-10 0-5.514-4.486-10-10-10M116.667 56.667c0-5.514-4.487-10-10-10-5.514 0-10 4.486-10 10 0 5.513 4.486 10 10 10 5.513 0 10-4.487 10-10M93.333 53.333C93.333 45.98 87.353 40 80 40s-13.333 5.98-13.333 13.333c0 7.354 5.98 13.334 13.333 13.334s13.333-5.98 13.333-13.334M46.667 97.676v12.323A3.332 3.332 0 0 0 50 113.332h13.333v-6.973l-4.986-7.48a9.948 9.948 0 0 1-1.68-5.547v-20c0-1.173.24-2.283.613-3.333H43.333A3.335 3.335 0 0 0 40 73.332v13.334c0 .66.197 1.303.56 1.85l6.107 9.16zM116.667 70H102.72c.373 1.047.613 2.16.613 3.333v20c0 1.98-.58 3.9-1.68 5.547l-4.986 7.48v6.973H110a3.335 3.335 0 0 0 3.333-3.333V97.677l6.107-9.16c.363-.547.56-1.194.56-1.85V73.333A3.335 3.335 0 0 0 116.667 70M63.333 73.333v20c0 .657.197 1.304.56 1.85l6.107 9.16v12.324A3.335 3.335 0 0 0 73.333 120h13.334A3.335 3.335 0 0 0 90 116.667v-12.324l6.107-9.16c.363-.546.56-1.193.56-1.85v-20A3.335 3.335 0 0 0 93.333 70H66.667a3.335 3.335 0 0 0-3.334 3.333"/>
        </g>
    </g>
</svg>