<?xml version="1.0" encoding="UTF-8"?>
<svg width="61px" height="48px" viewBox="0 0 61 48" version="1.1" xmlns="http://www.w3.org/2000/svg" xmlns:xlink="http://www.w3.org/1999/xlink">
    <!-- Generator: Sketch 47.1 (45422) - http://www.bohemiancoding.com/sketch -->
    <title>Group 38</title>
    <desc>Created with Sketch.</desc>
    <defs>
        <path d="M0.0767103129,40.699598 L1.16765381,32.0344722 C1.62610626,30.5305388 2.80642608,29.3967365 4.70861328,28.6330652 C7.56189408,27.4875584 12.0885168,25.5315624 12.6590587,24.9910443 C13.2296006,24.4505263 13.4070914,23.9880063 13.4209478,23.4962731 C13.4301854,23.1684509 13.4301854,22.0819703 13.4209478,20.2368313 C13.2343384,19.5540843 12.9803754,18.9879267 12.6590587,18.5383584 C12.1770836,17.864006 11.5268316,16.2433154 11.498833,15.9406771 C10.6297828,15.8186912 9.97548337,15.2724888 9.53593471,14.3020699 C8.87661171,12.8464416 8.20643213,10.4138945 9.85263259,10.2846652 C9.50760284,8.25805838 9.50760284,6.57563123 9.85263259,5.23738378 C10.3701772,3.23001261 13.6920052,0.0667732614 18.3137658,0.0558362617 C22.9355265,0.044899262 25.4742521,1.85497271 26.8141827,4.20973753 C27.7074698,5.77958075 27.8247971,7.80455665 27.1661645,10.2846652 C28.1553514,10.4078504 28.5959,10.927118 28.4878103,11.8424682 C28.3256759,13.2154933 27.5380024,14.8229445 26.8141827,15.5832099 C26.480581,15.8081859 26.1695018,15.8081859 25.8809453,15.5832099 C25.5502006,16.9864078 25.0991287,18.0526693 24.5277297,18.7819945 C23.9563307,19.5113197 23.7234856,20.229468 23.8291945,20.9364395 L23.8291945,23.3468967 C23.8333847,24.3316104 24.2587913,25.0179071 25.1054141,25.4057869 C26.3753483,25.9876065 31.901205,28.3367589 32.7555893,28.6330652 C33.6099736,28.9293716 35.6567248,30.4212647 36.035848,32.4379899 C36.2885968,33.7824733 36.6664344,36.3361668 37.1693607,40.0990704 C35.4911741,41.8976708 31.8819861,42.9723947 26.3417969,43.3232422 C18.031513,43.8495133 14.9255127,43.8367055 9.85263259,43.3232422 C6.4707125,42.9809333 3.21207174,42.1063852 0.0767103129,40.699598 Z" id="path-1"></path>
    </defs>
    <g id="Page-1" stroke="none" stroke-width="1" fill="none" fill-rule="evenodd">
        <g id="Standard-Activity-Posts" transform="translate(-758.000000, -1146.000000)">
            <g id="Group-28-Copy" transform="translate(512.000000, 1071.000000)">
                <g id="Group-60" transform="translate(248.000000, 77.000000)">
                    <g id="Group-38">
                        <path d="M21,40.643811 L22.0909435,31.9786852 C22.5493959,30.4747518 23.7297158,29.3409495 25.631903,28.5772783 C28.4851838,27.4317715 33.0118065,25.4757754 33.5823484,24.9352574 C34.1528902,24.3947393 34.330381,23.9322194 34.3442375,23.4404861 C34.3534751,23.1126639 34.3534751,22.0261833 34.3442375,20.1810443 C34.1576281,19.4982973 33.9036651,18.9321397 33.5823484,18.4825715 C33.1003733,17.8082191 32.4501213,16.1875284 32.4221227,15.8848901 C31.5530725,15.7629042 30.8987731,15.2167018 30.4592244,14.2462829 C29.7999014,12.7906546 29.1297218,10.3581076 30.7759223,10.2288783 C30.4308925,8.20227142 30.4308925,6.51984427 30.7759223,5.18159682 C31.2934669,3.17422565 34.6152949,0.0109863001 39.2370555,4.93003833e-05 C43.8588161,-0.0108876993 46.3975418,1.79918575 47.7374724,4.15395057 C48.6307595,5.72379379 48.7480867,7.74876969 48.0894542,10.2288783 C49.078641,10.3520634 49.5191897,10.8713311 49.4111,11.7866812 C49.2489656,13.1597064 48.4612921,14.7671575 47.7374724,15.5274229 C47.4038706,15.7523989 47.0927915,15.7523989 46.804235,15.5274229 C46.4734903,16.9306208 46.0224184,17.9968823 45.4510194,18.7262075 C44.8796204,19.4555327 44.6467753,20.1736811 44.7524841,20.8806526 L44.7524841,23.2911097 C44.7566744,24.2758235 45.1820809,24.9621202 46.0287038,25.3499999 C47.298638,25.9318195 52.8244947,28.2809719 53.678879,28.5772783 C54.5332633,28.8735846 56.5800145,30.3654777 56.9591377,32.3822029 C57.2118865,33.7266864 57.5897241,36.2803799 58.0926504,40.0432834 C56.4144638,41.8418838 52.8052758,42.9166078 47.2650866,43.2674552 C38.9548027,43.7937264 35.8488024,43.7809186 30.7759223,43.2674552 C27.3940022,42.9251463 24.1353614,42.0505983 21,40.643811 Z" id="Path-16-Copy" fill="#8DA0B4"></path>
                        <g id="Path-16" stroke-linejoin="round">
                            <use fill="#8DA0B4" fill-rule="evenodd" xlink:href="#path-1"></use>
                            <path stroke="#FFFFFF" stroke-width="1.5" d="M12.6714586,20.3418608 C12.5102478,19.7826232 12.3012353,19.3275384 12.0488847,18.9744637 C11.6729485,18.4484748 11.1506347,17.3165974 10.898096,16.5731498 C10.0021847,16.295643 9.31134993,15.6239984 8.85274915,14.611517 C8.42629747,13.6700131 8.12621751,12.6650797 8.08083612,11.8370092 C8.02826102,10.8776757 8.32909551,10.1103397 9.01107563,9.75071104 C8.75603023,7.91526489 8.79133655,6.34966233 9.12638202,5.05014034 C9.86061899,2.20229678 13.9358381,-0.683805848 18.311991,-0.694161638 C22.7917728,-0.704762657 25.8078043,0.924669652 27.4660377,3.83881285 C28.3745637,5.4354366 28.5648653,7.41301406 28.0657881,9.7491041 C28.9252463,10.1148332 29.3564867,10.881594 29.2326353,11.9304212 C29.059981,13.3925332 28.2408814,15.1723654 27.3573727,16.1003604 L27.2335246,16.2050237 C26.9697773,16.3828909 26.6919633,16.4818531 26.4161743,16.4992617 C26.0835563,17.6455253 25.6541471,18.5603532 25.1181137,19.2445382 C24.6659148,19.8217183 24.4981995,20.338991 24.5709485,20.8255299 L24.5791945,20.9364395 L24.5791877,23.3437052 C24.5821563,24.0413433 24.84165,24.4599773 25.4178015,24.7239408 C26.8173961,25.3651642 32.2437273,27.6617252 33.0013354,27.9244688 C34.5117862,28.4483036 36.4023599,30.3281619 36.7729367,32.2994249 C37.0288909,33.6609593 37.4081166,36.2240347 37.9127504,39.9997135 L37.9597471,40.3513433 L37.7177293,40.6107264 C35.8730605,42.5877545 32.1050531,43.7097708 26.3891977,44.0717428 C18.125427,44.5950684 14.9497684,44.5929927 9.7771055,44.0694296 C6.3149765,43.7190022 2.97819322,42.8234824 -0.230314277,41.3838756 L-0.736752811,41.1566447 L0.423528168,31.9407864 L0.450245948,31.8157807 C0.98058177,30.076037 2.32996101,28.7798381 4.42918846,27.9370611 C7.8972308,26.5447459 11.7559965,24.8134549 12.1432478,24.4465821 C12.5337603,24.0766197 12.6618152,23.8098046 12.6712454,23.4751474 C12.6799693,23.1655554 12.6801312,22.1136709 12.6714586,20.3418608 Z"></path>
                        </g>
                    </g>
                </g>
            </g>
        </g>
    </g>
</svg>