<svg xmlns="http://www.w3.org/2000/svg" width="65" height="59">
  <path fill="#122B46" fill-rule="evenodd" d="M64.728 54.762L47.001 15.938a2.958 2.958 0 0 0-2.372-1.718 2.928 2.928 0 0 0-2.674 1.177L26.001 36.9l-9.455-7.168a2.936 2.936 0 0 0-4.417 1.052L.311 54.676a3.017 3.017 0 0 0 .13 2.905A2.948 2.948 0 0 0 2.956 59h59.09c1.007 0 1.947-.52 2.487-1.377a3.012 3.012 0 0 0 .195-2.86M29.25 8.74c0 4.829-3.88 8.741-8.667 8.741s-8.666-3.912-8.666-8.74S15.797 0 20.583 0c4.787 0 8.667 3.913 8.667 8.74z" opacity=".25"/>
</svg>
