<svg xmlns="http://www.w3.org/2000/svg" width="65" height="65">
  <path fill="#C0C7CF" fill-rule="evenodd" d="M10.833 5.417c-4.48 0-8.125 3.645-8.125 8.125s3.646 8.125 8.125 8.125c4.48 0 8.125-3.646 8.125-8.125 0-4.48-3.645-8.125-8.125-8.125m51.459 8.125c0-4.48-3.646-8.125-8.125-8.125-4.48 0-8.125 3.645-8.125 8.125s3.645 8.125 8.125 8.125 8.125-3.646 8.125-8.125m-18.959-2.709C43.333 4.86 38.475 0 32.5 0c-5.975 0-10.833 4.859-10.833 10.833 0 5.975 4.858 10.834 10.833 10.834 5.975 0 10.833-4.86 10.833-10.834M5.417 46.861v10.013a2.708 2.708 0 0 0 2.708 2.709h10.833v-5.666l-4.051-6.078a8.083 8.083 0 0 1-1.365-4.506v-16.25c0-.954.195-1.856.498-2.709H2.708A2.71 2.71 0 0 0 0 27.083v10.833c0 .536.16 1.059.455 1.503l4.962 7.442zm56.875-22.486H50.96c.303.85.498 1.755.498 2.708v16.25a8.09 8.09 0 0 1-1.365 4.507l-4.051 6.077v5.666h10.833a2.71 2.71 0 0 0 2.708-2.708V46.862l4.962-7.442c.295-.444.455-.97.455-1.503V27.083a2.71 2.71 0 0 0-2.708-2.708m-43.334 2.708v16.25c0 .534.16 1.06.455 1.503l4.962 7.443v10.013A2.71 2.71 0 0 0 27.083 65h10.834a2.71 2.71 0 0 0 2.708-2.708V52.279l4.962-7.443c.295-.444.455-.97.455-1.503v-16.25a2.71 2.71 0 0 0-2.709-2.708H21.667a2.71 2.71 0 0 0-2.709 2.708"/>
</svg>
