<svg xmlns="http://www.w3.org/2000/svg" xmlns:xlink="http://www.w3.org/1999/xlink" width="28" height="28">
    <defs>
        <circle id="b" cx="11" cy="11" r="11"/>
        <filter id="a" width="150%" height="150%" x="-25%" y="-15.9%" filterUnits="objectBoundingBox">
            <feOffset dy="2" in="SourceAlpha" result="shadowOffsetOuter1"/>
            <feGaussianBlur in="shadowOffsetOuter1" result="shadowBlurOuter1" stdDeviation="1.5"/>
            <feComposite in="shadowBlurOuter1" in2="SourceAlpha" operator="out" result="shadowBlurOuter1"/>
            <feColorMatrix in="shadowBlurOuter1" values="0 0 0 0 0 0 0 0 0 0 0 0 0 0 0 0 0 0 0.0994961504 0"/>
        </filter>
    </defs>
    <g fill="none" fill-rule="evenodd">
        <g transform="translate(3 1)">
            <use fill="#000" filter="url(#a)" xlink:href="#b"/>
            <use fill="#FFF" xlink:href="#b"/>
            <circle cx="11" cy="11" r="10.5" stroke="#597490"/>
        </g>
        <path fill="#597490" d="M15.667 10.125h-3.334v-.938c0-.861.748-1.562 1.667-1.562s1.667.7 1.667 1.563v.937zm-1.334 4.018v.982h-.666v-.982c-.574-.14-1-.625-1-1.206 0-.689.598-1.25 1.333-1.25s1.333.561 1.333 1.25c0 .581-.426 1.066-1 1.206zm2-4.018v-.938C16.333 7.982 15.287 7 14 7c-1.287 0-2.333.981-2.333 2.188v.937h-1.334c-.184 0-.333.14-.333.313v6.25c0 .172.15.312.333.312h7.334c.184 0 .333-.14.333-.313v-6.25c0-.172-.15-.312-.333-.312h-1.334z"/>
    </g>
</svg>