<svg xmlns="http://www.w3.org/2000/svg" xmlns:xlink="http://www.w3.org/1999/xlink" width="373" height="376">
  <defs>
    <linearGradient id="a" x1="50%" x2="50%" y1="162.403%" y2="0%">
      <stop offset="0%" stop-color="#FFF" stop-opacity="0"/>
      <stop offset="100%" stop-color="#E9F1F9"/>
    </linearGradient>
    <path id="b" d="M371.78.281c4.34 17.171-11.687 37.673-26.534 43.681-24.999 10.118-70.929 21.63-88.603 30.608-17.84 9.063-45.062 36.197-70.112 36.197-63.568 0-76.663-27.671-118.597-48.509C22.73 39.796-5.57 50.823 1.693.281H371.78z"/>
    <path id="c" d="M0 .338h61.995v61.661H0z"/>
  </defs>
  <g fill="none" fill-rule="evenodd">
    <use fill="url(#a)" transform="translate(0 265.227)" xlink:href="#b"/>
    <path fill="#007CFF" d="M161.71 197.243l-4.25-43.689-5.463-46.724 4.25-.606 9.714 44.295 15.177 1.214 15.783-44.903 4.25.608-11.536 47.935.608 40.657-28.532 1.213"/>
    <path fill="#F1B9BA" d="M167.112 137.554c-1.147 4.188.662 10.906 4.851 12.053 4.19 1.146 9.173-3.714 10.32-7.9a7.862 7.862 0 0 0-5.508-9.66c-4.191-1.144-8.516 1.32-9.663 5.507"/>
    <path fill="#35307A" d="M172.713 135.138c-.856-.234-2.058-.825-2.513-1.629l-.088-.221c1.862-1.343 4.275-1.892 6.661-1.24a7.862 7.862 0 0 1 5.51 9.658c-.82 2.99-3.596 6.311-6.64 7.556.054-.846.26-1.681.478-2.502a172.59 172.59 0 0 1 2.896-9.847 42.475 42.475 0 0 1-6.304-1.775"/>
    <path fill="#122B46" d="M190.243 196.03l-4.212 67.01h-4.638l-3.94-66.465-4.14.175-2.532 67.929-3.58-.083-5.49-67.353-.81-8.297 29.244.38.098 6.704"/>
    <path fill="#9CA8B4" d="M186.03 263.04l10.2 1.124-.37 1.58h-14.935l.468-2.704h4.638m-15.251 1.639v1.903l-14.01.53v-1.752l10.432-.764 3.579.083"/>
    <path fill="#35307A" d="M167.505 140.616l-.475.04c-.19.087-.299.286-.393.47l-.967 1.885c-.332.644-.664 1.295-.809 2.003-.173.846-.064 1.723.078 2.575.115.675.253 1.353.556 1.967.539 1.101 1.58 1.9 2.73 2.323 1.15.417 2.405.482 3.623.374.832-.074 1.67-.23 2.414-.606 1.652-.831 2.655-2.788 2.373-4.613-.07-.451-.21-.9-.16-1.356.047-.442.269-.846.49-1.234.249-.443 1.935-2.648.617-2.658-.404-.005-.982.68-1.333.88-.5.291-1.043.506-1.62.569-2.553.276-4.582-2.295-7.124-2.619z"/>
    <path fill="#F1B9BA" d="M177.609 141.54c.566-.414 1.343-.604 1.991-.327l.405.27c.312.31.404.79.366 1.228-.107 1.215-1.107 2.234-2.271 2.596-.33.102-.681.158-1.024.108-.343-.054-.677-.223-.875-.505-.734-1.047.59-2.776 1.408-3.37m-18.934-37.137a3.64 3.64 0 0 1-3.642 3.64 3.64 3.64 0 1 1 0-7.28 3.64 3.64 0 0 1 3.642 3.64m43.495 1.214a3.64 3.64 0 0 1-3.641 3.64 3.64 3.64 0 1 1 0-7.28 3.64 3.64 0 0 1 3.642 3.64"/>
    <path fill="#FFD900" d="M93.505 104h165a5 5 0 0 0 5-5V5a5 5 0 0 0-5-5h-165a5 5 0 0 0-5 5v94a5 5 0 0 0 5 5z"/>
    <path fill="#FFC400" d="M183.775 276.239h53.933v-8.038h-53.933z"/>
    <path fill="#FFD900" d="M220.876 213.827c-.936-4.832-5.148-8.32-10.05-8.32h-.169c-4.9 0-9.114 3.488-10.048 8.32l-1.936 10.005h24.138l-1.935-10.005m-30.786 54.374h41.303l-2.475-12.8h-36.352l-2.476 12.8m6.655-34.402l-2.25 11.636h32.494l-2.25-11.636h-27.994"/>
    <path fill="#4A5361" d="M228.92 255.404h-36.36l1.933-9.966h32.492l1.933 9.966m-4.185-21.605h-27.986l1.921-9.967h24.144l1.921 9.967"/>
    <path fill="#FFF" d="M190.09 268.201l2.471-12.797h.004l-2.475 12.797m2.471-12.797l1.806-9.336 1.628-8.393-1.501 7.76h4.399v.003h-4.399l-1.933 9.966"/>
    <path fill="#FFE133" d="M194.494 268.201h-4.404l2.475-12.797h4.4l-2.47 12.797m4.398-22.766h-4.399l1.501-7.76.752-3.876h4.404l-2.258 11.636"/>
    <path fill="#6E7581" d="M196.965 255.404h-4.404l1.933-9.966h4.4l-1.929 9.966"/>
    <path fill="#FFF" d="M203.071 223.832h-4.403l.95-4.888-.945 4.888h4.398m2.616-17.033a10.145 10.145 0 0 1 4.964-1.293h.006c-1.79 0-3.49.466-4.97 1.293m5.696-1.278c-.184-.01-.37-.015-.556-.015h.003c.185 0 .37.006.553.015"/>
    <path fill="#FFE133" d="M203.071 223.832h-4.398l.945-4.888.996-5.118a10.27 10.27 0 0 1 5.073-7.027 10.17 10.17 0 0 1 4.97-1.293h.17a9.605 9.605 0 0 1 2.128.232 10.22 10.22 0 0 0-7.937 8.088l-1.947 10.006"/>
    <path fill="#6E7581" d="M201.151 233.799h-4.404l1.921-9.967h4.403l-1.92 9.967"/>
    <path fill="#FFD033" d="M183.775 276.239h3.594v-8.038h-3.594z"/>
    <g opacity=".9" transform="translate(145 21)">
      <mask id="d" fill="#fff">
        <use xlink:href="#c"/>
      </mask>
      <path fill="#122B46" d="M61.8 27.747c-.099-.867-1.114-1.52-1.993-1.52-2.84 0-5.362-1.657-6.418-4.224-1.08-2.629-.384-5.692 1.733-7.623a1.707 1.707 0 0 0 .188-2.326 30.595 30.595 0 0 0-4.91-4.932 1.732 1.732 0 0 0-2.355.189c-1.849 2.035-5.167 2.791-7.732 1.727a6.847 6.847 0 0 1-4.186-6.694 1.713 1.713 0 0 0-1.522-1.8A31.087 31.087 0 0 0 27.63.525a1.721 1.721 0 0 0-1.534 1.765 6.859 6.859 0 0 1-4.244 6.578c-2.534 1.029-5.83.279-7.674-1.738a1.734 1.734 0 0 0-2.34-.196 30.725 30.725 0 0 0-5.014 4.931 1.709 1.709 0 0 0 .185 2.343A6.805 6.805 0 0 1 8.742 21.9c-1.07 2.536-3.715 4.168-6.744 4.168-.984-.031-1.683.625-1.791 1.515a30.783 30.783 0 0 0-.013 7.01c.098.87 1.144 1.517 2.033 1.517 2.7-.069 5.29 1.592 6.378 4.224 1.084 2.628.386 5.691-1.733 7.625a1.704 1.704 0 0 0-.19 2.322 30.673 30.673 0 0 0 4.905 4.935 1.73 1.73 0 0 0 2.359-.187c1.855-2.039 5.174-2.794 7.728-1.728a6.837 6.837 0 0 1 4.194 6.692 1.713 1.713 0 0 0 1.52 1.8 31.054 31.054 0 0 0 6.975.02 1.72 1.72 0 0 0 1.533-1.765 6.855 6.855 0 0 1 4.243-6.576c2.55-1.035 5.832-.277 7.677 1.737a1.74 1.74 0 0 0 2.339.195 30.77 30.77 0 0 0 5.014-4.932 1.707 1.707 0 0 0-.185-2.344c-2.157-1.941-2.856-5.034-1.737-7.69 1.054-2.5 3.602-4.18 6.342-4.18l.383.011c.89.072 1.707-.61 1.815-1.512.273-2.318.276-4.676.013-7.01zM30.997 48.943c-9.87 0-17.87-7.957-17.87-17.773 0-9.818 8-17.775 17.87-17.775 9.87 0 17.871 7.957 17.871 17.775 0 3.332-.924 6.448-2.528 9.113L38.514 32.5c.567-1.328.867-2.768.867-4.255 0-2.91-1.14-5.647-3.21-7.704a10.915 10.915 0 0 0-7.746-3.192c-.977 0-1.948.13-2.888.384a1.24 1.24 0 0 0-.859.86c-.11.419.015.85.345 1.178 0 0 3.863 3.873 5.155 5.158.136.134.135.455.117.571l-.013.085c-.13 1.413-.382 3.11-.588 3.762-.028.027-.054.05-.083.079l-.086.087c-.664.213-2.396.465-3.84.593l.001-.008-.065.017a.83.83 0 0 1-.656-.247 2814.189 2814.189 0 0 0-5.057-5.004c-.333-.331-.674-.4-.902-.4-.53 0-1.006.381-1.155.928a10.893 10.893 0 0 0 2.827 10.558 10.914 10.914 0 0 0 7.747 3.191c1.495 0 2.943-.297 4.278-.86l7.91 7.868a17.852 17.852 0 0 1-9.616 2.795z" mask="url(#d)"/>
    </g>
  </g>
</svg>
