<svg xmlns="http://www.w3.org/2000/svg" width="300" height="300">
  <g fill="none" fill-rule="nonzero">
    <rect width="300" height="300" fill="#F5F5F5" rx="3"/>
    <path fill="#C8CBCF" d="M70.037 213.497c.396-15.36 3.833-25.477 10.306-30.35 11.354-8.547 28.95-13.467 44.757-17.567 5.067-6.167 5.64-11.473 1.713-15.923-3.823-3.12-7.54-10.167-11.153-21.14-5.527-.914-8.29-8.8-8.29-23.667 1.347-2.02 3.067-2.523 5.157-1.513-4.787-8.31-4.787-16.5 0-24.58 7.433-14.67 18.44-22.007 33.013-22.007 10.943-.747 19.867 3.533 26.76 12.84 10.923 3.717 14.76 15.013 11.51 33.893 2.297-1.13 3.92-.673 4.873 1.367-.886 19.227-10.376 23.2-11.646 22.3-1.334 9.627-4.944 17.133-10.834 22.507-3.25 8.026-2.186 13.333 3.187 15.926 1.003.484 12.99 2.984 24.527 6.967 9.42 3.257 18.276 7.843 22.773 10.31 6.253 3.43 9.577 13.543 9.967 30.343a6.667 6.667 0 0 1-2.7 5.514c-22.124 16.36-47.887 24.54-77.297 24.54-29.393 0-54.113-8.14-74.16-24.414a6.667 6.667 0 0 1-2.463-5.346z"/>
  </g>
</svg>