<?xml version="1.0" encoding="UTF-8"?>
<svg width="63px" height="70px" viewBox="0 0 63 70" version="1.1" xmlns="http://www.w3.org/2000/svg" xmlns:xlink="http://www.w3.org/1999/xlink">
    <!-- Generator: Sketch 61.2 (89653) - https://sketch.com -->
    <title>My achievements</title>
    <desc>Created with Sketch.</desc>
    <g id="Page-1" stroke="none" stroke-width="1" fill="none" fill-rule="evenodd">
        <g id="Artboard" transform="translate(-212.000000, -240.000000)">
            <g id="My-achievements" transform="translate(204.000000, 239.000000)">
                <path d="M55,22 L69.5788322,22 C70.02066,22 70.3788322,22.3581722 70.3788322,22.8 C70.3788322,22.9463436 70.3386901,23.0898835 70.262775,23.2149968 L67.4894228,27.7856689 C67.1964951,28.2684335 67.1995118,28.8748018 67.4972285,29.3546279 L70.241924,33.7782186 C70.4748674,34.1536506 70.3593577,34.6468363 69.9839257,34.8797797 C69.8572761,34.9583617 69.7111921,35 69.5621443,35 L55,35 L55,35 L55,22 Z" id="Path-27" fill="#B8C0C8"></path>
                <path d="M55,18.75 C55.6472087,18.75 56.1795339,19.2418747 56.2435464,19.8721948 L56.25,20 L56.25,54 C56.25,54.6903559 55.6903559,55.25 55,55.25 C54.3527913,55.25 53.8204661,54.7581253 53.7564536,54.1278052 L53.75,54 L53.75,20 C53.75,19.3096441 54.3096441,18.75 55,18.75 Z" id="Shape" fill="#A1ABB5" fill-rule="nonzero"></path>
                <line x1="56.5" y1="24" x2="56.5" y2="34" id="Line-4" stroke="#A1ABB5" stroke-width="2" opacity="0.3" stroke-linecap="square"></line>
                <path d="M32.6016937,49.754372 C37.9537835,50.4875094 41,54.7190773 41,60.6266231 C41,63.6920789 40.0273096,66.2355515 38.32894,68.0689872 L33.9481045,68.0682228 C36.0633884,62.1977395 36.8148792,58.2153689 36.2025769,56.1211112 C35.5902747,54.0268534 33.8560824,51.9706852 31,49.9526067 Z" id="Combined-Shape-Copy-4" fill="#E2E5E8" transform="translate(36.000000, 58.915003) scale(-1, 1) translate(-36.000000, -58.915003) "></path>
                <path d="M20.2512515,3.66714491 L28.1760885,29.1466166 C28.7339423,30.9401954 29.4057931,32.6963093 30.1875375,34.4042324 L30.5462588,35.1879521 C30.9267212,36.0191708 31.9089829,36.3845811 32.7402017,36.0041186 C32.8242503,35.9656482 32.9049287,35.9202049 32.9813908,35.8682655 C34.0456283,35.1453455 34.9193123,34.1758445 35.527986,33.0423846 L36,32.1634097 L36,32.1634097 L35.3000305,36.7446198 L30.292005,38 L26.8512605,36.7446198 L22.98219,26.9125192 L15,4.16533914 L16.4194032,3 L20.2512515,3.66714491 Z" id="Path-34" fill="#E2E5E8"></path>
                <path d="M36.2636526,51.284668 C34.5449636,49.7842407 31.3313406,49.2130737 28.8343313,51.6893311 C27.1696585,53.3401693 26.5582147,57.2300212 27,63.3588867 C24.8127313,64.4109701 23.4963186,65.5710042 23.050762,66.8389893 C22.6052053,68.1069743 22.1024384,68.256958 21.5424612,67.2889404 L20.6161917,66.1807861 L22.443096,63.6274414 L24.4460256,59.8125 L24.6222952,53.1306152 L27,49.5543213 L29.9499319,48.2043457 L34.2631643,48.4324951 C36.7426158,51.3342285 37.4094452,52.2849528 36.2636526,51.284668 Z" id="Path-39" fill="#E2E5E8"></path>
                <path d="M31.5,46.75 C34.4253131,46.75 37.1143191,48.170311 38.7754136,50.5104754 C39.1750083,51.0734278 39.0425807,51.8537264 38.4796282,52.2533211 C37.9166758,52.6529157 37.1363772,52.5204881 36.7367826,51.9575356 C35.5396655,50.2710267 33.606605,49.25 31.5,49.25 C28.0332126,49.25 25.2085565,51.9992911 25.0873837,55.4365214 L25.0833333,55.6666667 L25.0833333,62 C25.0833333,62.0567178 25.0795558,62.1125532 25.0722387,62.1672685 C25.1824094,62.748533 24.8651886,63.3450533 24.2923782,63.5658275 C22.8783611,64.1108222 21.8234752,65.2918081 21.424465,66.7220529 L21.416,66.754 L40.9661331,66.8164064 C41.6133385,66.8184565 42.144103,67.3120149 42.2061185,67.9425346 L42.2121673,68.0703596 C42.2101172,68.7175651 41.7165588,69.2483296 41.0860391,69.3103451 L40.9582141,69.3163939 L18.75,69.2460468 L18.75,68 C18.75,65.2809079 20.2608809,62.844903 22.5831591,61.6039246 L22.5833333,55.6666667 C22.5833333,50.7421276 26.575461,46.75 31.5,46.75 Z" id="Combined-Shape" fill="#A1ABB5" fill-rule="nonzero"></path>
                <path d="M16.5277508,5.75 L16.5277508,8.25 L12,8.25 C11.6203042,8.25 11.306509,8.53215388 11.2568466,8.89822944 L11.25,9 L11.25,17 C11.25,21.7461971 15.0288466,25.6097972 19.7420089,25.7462695 L20,25.75 L23.0502952,25.75 L23.0502952,28.25 L20,28.25 C13.8838779,28.25 8.9076871,23.3693736 8.75367433,17.2903676 L8.75,17 L8.75,9 C8.75,7.26696854 10.1064548,5.85075407 11.8155761,5.75514479 L12,5.75 L16.5277508,5.75 Z M49,5.75 C50.7330315,5.75 52.1492459,7.10645477 52.2448552,8.81557609 L52.25,9 L52.25,17 C52.25,23.1161221 47.3693736,28.0923129 41.2903676,28.2463257 L41,28.25 L38.735162,28.25 L38.735162,25.75 L41,25.75 C45.7461971,25.75 49.6097972,21.9711534 49.7462695,17.2579911 L49.75,17 L49.75,9 C49.75,8.62030423 49.4678461,8.30650904 49.1017706,8.25684662 L49,8.25 L44.7549221,8.25 L44.7549221,5.75 L49,5.75 Z" id="Shape" fill="#A1ABB5" fill-rule="nonzero"></path>
                <path d="M43.3100609,1.75 L17.7821883,1.75 C15.9872629,1.75 14.5321883,3.20507456 14.5321883,5 C14.5321883,5.35204713 14.5893876,5.70175564 14.7015506,6.03545707 L24.1916917,34.2700284 C25.1918002,37.2454988 27.98025,39.25 31.119301,39.25 C34.25631,39.25 37.0223414,37.1934245 37.9257637,34.1893184 L46.4223711,5.93596235 C46.9392888,4.21708092 45.9649047,2.40460758 44.2460233,1.88768985 C43.9424215,1.79638795 43.6270942,1.75 43.3100609,1.75 Z M17.7821883,4.25 L43.3100609,4.25 C43.3832224,4.25 43.4559903,4.26070491 43.5260522,4.28177458 C43.9227172,4.40106329 44.147575,4.81932637 44.0282863,5.21599131 L35.5316789,33.4693474 C34.9460237,35.4167982 33.1529079,36.75 31.119301,36.75 C29.0540225,36.75 27.2194153,35.4311768 26.561413,33.473523 L17.0712719,5.23895163 C17.0453881,5.16194361 17.0321883,5.08124165 17.0321883,5 C17.0321883,4.58578644 17.3679747,4.25 17.7821883,4.25 Z" id="Path-32" fill="#A1ABB5" fill-rule="nonzero"></path>
                <path d="M29.139,9.987 L26,9.98758865 L25.9186009,9.99512282 C25.6066919,10.0542755 25.4647691,10.4481723 25.6992993,10.6926825 L28.039,13.132 L27.0854544,16.8976768 L27.0731294,16.9729964 C27.0494318,17.2936675 27.4009427,17.5317017 27.6972636,17.3610927 L31,15.459 L34.3027364,17.3610927 L34.371902,17.3933584 C34.6741669,17.5030282 34.9985143,17.2291323 34.9145456,16.8976768 L33.96,13.132 L36.3007007,10.6926825 L36.3516099,10.6287229 C36.5248318,10.3626769 36.3388062,9.98758865 36,9.98758865 L32.86,9.987 L31.3772746,6.82315255 C31.2273875,6.50339359 30.7726125,6.50339359 30.6227254,6.82315255 L29.139,9.987 Z M31,7.981 L32.2184701,10.5811028 L32.2590118,10.6496822 C32.336491,10.7560109 32.4610549,10.820922 32.5957447,10.820922 L35.023,10.82 L33.1992993,12.7222111 L33.1469706,12.7893057 C33.087172,12.8846822 33.0678546,13.0014953 33.0960927,13.1129615 L33.864,16.146 L31.2079019,14.6176307 L31.1275933,14.5820634 C31.0170293,14.546496 30.8950563,14.5583518 30.7920981,14.6176307 L28.135,16.146 L28.9039073,13.1129615 L28.9162797,13.0287778 C28.9211822,12.9163121 28.8802978,12.8051954 28.8007007,12.7222111 L26.976,10.82 L29.4042553,10.820922 C29.565883,10.820922 29.7129296,10.72745 29.7815299,10.5811028 L31,7.981 Z" id="Stroke-301" fill="#E2E5E8" fill-rule="nonzero"></path>
                <path d="" id="Path-35" stroke="#979797"></path>
                <path d="M45.5,46.75 C39.0106542,46.75 33.75,52.0106542 33.75,58.5 C33.75,64.9893458 39.0106542,70.25 45.5,70.25 C51.9893458,70.25 57.25,64.9893458 57.25,58.5 C57.25,52.0106542 51.9893458,46.75 45.5,46.75 Z M45.5,49.25 C50.6086339,49.25 54.75,53.3913661 54.75,58.5 C54.75,63.6086339 50.6086339,67.75 45.5,67.75 C40.3913661,67.75 36.25,63.6086339 36.25,58.5 C36.25,53.3913661 40.3913661,49.25 45.5,49.25 Z" id="Oval-Copy-3" fill="#A1ABB5" fill-rule="nonzero"></path>
                <circle id="Oval-Copy-4" fill="#A1ABB5" cx="45.5" cy="63.5" r="1.5"></circle>
                <path d="M45.5,51.75 C46.1472087,51.75 46.6795339,52.2418747 46.7435464,52.8721948 L46.75,53 L46.75,60 C46.75,60.6903559 46.1903559,61.25 45.5,61.25 C44.8527913,61.25 44.3204661,60.7581253 44.2564536,60.1278052 L44.25,60 L44.25,53 C44.25,52.3096441 44.8096441,51.75 45.5,51.75 Z" id="Path-23-Copy" fill="#A1ABB5" fill-rule="nonzero"></path>
                <polygon id="Line-5" fill="#A1ABB5" fill-rule="nonzero" points="32.75 36.75 32.75 48.25 30.25 48.25 30.25 36.75"></polygon>
                <path d="M34.5,38.25 C35.1903559,38.25 35.75,38.8096441 35.75,39.5 C35.75,40.1472087 35.2581253,40.6795339 34.6278052,40.7435464 L34.5,40.75 L28.5,40.75 C27.8096441,40.75 27.25,40.1903559 27.25,39.5 C27.25,38.8527913 27.7418747,38.3204661 28.3721948,38.2564536 L28.5,38.25 L34.5,38.25 Z" id="Line-6" fill="#A1ABB5" fill-rule="nonzero"></path>
                <path d="M34.5,46.25 C35.1903559,46.25 35.75,46.8096441 35.75,47.5 C35.75,48.1472087 35.2581253,48.6795339 34.6278052,48.7435464 L34.5,48.75 L28.5,48.75 C27.8096441,48.75 27.25,48.1903559 27.25,47.5 C27.25,46.8527913 27.7418747,46.3204661 28.3721948,46.2564536 L28.5,46.25 L34.5,46.25 Z" id="Line-6-Copy" fill="#A1ABB5" fill-rule="nonzero"></path>
            </g>
        </g>
    </g>
</svg>