<?xml version="1.0" encoding="UTF-8"?>
<svg width="72px" height="71px" viewBox="0 0 72 71" version="1.1" xmlns="http://www.w3.org/2000/svg" xmlns:xlink="http://www.w3.org/1999/xlink">
    <!-- Generator: Sketch 61.2 (89653) - https://sketch.com -->
    <title>My certificates</title>
    <desc>Created with Sketch.</desc>
    <g id="Page-1" stroke="none" stroke-width="1" fill="none" fill-rule="evenodd">
        <g id="Artboard" transform="translate(-336.000000, -237.000000)">
            <g id="My-certificates" transform="translate(336.773373, 237.750000)">
                <path d="M14.9090568,21.6257135 L15.1066266,21.677 L15.1258806,21.7636645 L16.9390421,28.3661455 C17.0420752,28.7413324 17.2813252,29.064609 17.6100256,29.2727844 L17.7410353,29.3472865 C18.4512323,29.7074166 19.3322333,29.4750001 19.7669729,28.7885641 L21.8356266,25.521 L25.1035089,27.5000598 C25.5193018,27.7519031 26.0285953,27.7959707 26.4814671,27.6192903 L26.611694,27.5616275 C27.327718,27.2051292 27.6659262,26.3544901 27.3695871,25.5949055 L24.4666266,18.156 L24.5739632,17.9912501 C25.3409105,16.7450268 25.7486602,15.2726261 25.7486602,13.6368763 C25.7486602,12.7930214 25.6972811,10.9008397 25.4355987,11.0348484 C24.7564977,11.3826192 23.1221907,16.0052136 20.7266266,18.25 C18.2841993,20.5386999 13.6457099,21.2756794 14.9090568,21.6257135 Z M23.2486602,13.6368763 C23.2486602,15.0600051 22.8377234,16.2529965 22.0810255,17.1972878 L21.9956205,17.317789 C21.7885448,17.6499336 21.7476326,18.0633441 21.8919639,18.433284 L24.0366266,23.931 L22.6085823,23.0660733 L22.4685449,22.9890906 C21.6167067,22.5665544 20.569243,22.8493451 20.0513794,23.6670306 L18.7886266,25.66 L17.7416266,21.849 L18.0358671,21.5885627 C18.9023363,20.8170618 18.3417197,19.3839762 17.1817492,19.4052094 L17.0760658,19.4071439 C15.7041345,19.4070454 18.9804996,19.0708399 20.7266266,17.1972878 C22.6914804,15.089047 23.2486602,11.5203941 23.2486602,13.6368763 Z" id="Combined-Shape" fill="#E2E5E8" fill-rule="nonzero"></path>
                <path d="M15.2266266,58.25 L47.5450684,58.25 C48.6496379,58.25 49.5450684,59.1454305 49.5450684,60.25 L49.5450684,62.2065428 C49.5450154,63.972407 50.9765311,65.4039228 52.7423953,65.4039228 C53.2940748,65.4039228 53.8363689,65.2611804 54.316556,64.9895729 C54.316556,64.9895729 54.316556,64.9895729 54.316556,64.9895729 C55.9141894,64.0859062 56.5035152,62.7977315 56.0845334,61.125049 L56.7141914,60.3565248 C57.5658252,63.2390029 57.3559392,65.1963486 56.0845334,66.228562 C54.1774248,67.776882 52.9695048,68.5312714 51.2572866,68.1540767 C49.5450684,67.776882 46.3545634,64.5780282 46.3545634,63.5950857 C46.3545634,62.6121433 44.563992,62.0695468 41.9267418,62.0695468 C40.1685749,62.0695468 31.2685365,61.9290838 15.2266266,61.6481578 L15.2266266,58.25 Z" id="Path-41" fill="#E2E5E8"></path>
                <path d="M59.6836325,18.25 C59.0049357,15.9558676 60.314505,13.5459134 62.6086374,12.8672166 C63.0434275,12.7385882 63.4957165,12.6790192 63.9489844,12.6906739 C65.2392896,12.7238841 66.3096107,12.9024173 67.1599477,13.2262737 C70.0024453,14.3088574 66.5994708,10.8965427 63.5419351,10.3808346 C61.5035781,10.0370293 59.0651419,10.3708089 56.2266266,11.3821737 L56.2266266,16.8039746 L59.6836325,18.25 Z" id="Path-43" fill="#E2E5E8"></path>
                <path d="M16.4766266,20.6155288 L16.4766266,60.963 L46.0879887,60.9632904 C46.7351974,60.9632904 47.2675226,61.455165 47.3315351,62.0854851 L47.3379887,62.2132904 L47.3383522,62.8098655 C47.3687715,65.1143408 49.2617375,66.958426 51.5654636,66.9294492 C53.8570076,66.8978005 55.7119551,65.0871919 55.8222719,62.8232537 L55.8274629,62.6097219 L55.8274629,60.1580095 L58.3274629,60.1580095 L58.3274629,62.6097219 C58.3274629,66.3397511 55.330049,69.3776947 51.5984479,69.4292311 C48.1486147,69.4726254 45.2762146,66.8916832 44.8836745,63.538848 L44.8756266,63.463 L15.2266266,63.4632904 C14.5794179,63.4632904 14.0470927,62.9714157 13.9830802,62.3410956 L13.9766266,62.2132904 L13.9766266,20.6155288 L16.4766266,20.6155288 Z M61.5339608,9.00075907 L61.7776959,9.00075907 L62.6686626,9.01467856 C62.8057899,9.01803579 62.9289796,9.02202467 63.0482371,9.02703172 L63.2470108,9.02766693 L63.3507338,9.04118646 L63.4566462,9.04876534 C66.8770967,9.26616567 68.9997818,10.636834 69.4391672,14.01554 L69.4703513,14.2864673 L69.4766266,14.4115626 L69.4766266,18.4006267 C69.4766266,19.0478354 68.9847519,19.5801606 68.3544318,19.6441731 L68.2266266,19.6506267 L58.3266266,19.65 L58.3274629,39.4453408 L55.8274629,39.4453408 L55.8274629,18.4006267 L55.8296266,18.35 L55.7484988,14.1924814 C55.7464026,13.8482471 55.7510298,13.6740068 55.7630943,13.5853095 C55.8653671,12.8334092 56.1443601,12.1377123 56.5598827,11.5272374 L24.2203642,11.5276669 L24.2203642,9.02766693 L61.0234291,9.02735061 L61.263219,9.00999155 L61.5339608,9.00075907 Z M62.995857,11.5272079 L61.1493093,11.5270379 C59.5944691,11.7031333 58.4042515,12.7167788 58.2402838,13.9222545 L58.3016266,17.15 L66.9766266,17.15 L66.9766266,14.486 L66.958612,14.327622 C66.7057117,12.4207142 65.7140119,11.7397968 63.5359883,11.5609994 L63.2980687,11.5437309 C63.1950116,11.5371807 63.0969373,11.5317703 62.995857,11.5272079 Z" id="Shape" fill="#A1ABB5" fill-rule="nonzero"></path>
                <path d="M15.3403753,61 L15.3403753,63.5 L2.66062658,63.5 C3.18670501,65.4402851 4.90669325,66.8812479 6.9810427,66.9828179 L7.22427332,66.9885397 L51.2242386,66.9044817 L51.2290146,69.4044772 L7.18710182,69.4884934 C3.20225187,69.4729392 -0.0154980813,66.2299708 1.14752652e-12,62.2451209 C0.00257544188,61.5997027 0.493911376,61.0700991 1.1225849,61.0064198 L1.25004663,61 L15.3403753,61 Z" id="Path-40" fill="#A1ABB5" fill-rule="nonzero"></path>
                <path d="M6.89302647,16.25 L3.46809182,26.3573717 C3.4125871,26.5211724 3.50037837,26.6989547 3.66417912,26.7544594 C3.7424891,26.7809951 3.82811567,26.7754831 3.90237702,26.7391258 L7.95359233,24.7557115 C8.25239564,24.6094218 8.61343179,24.7222792 8.7757214,25.0127033 L10.8014499,28.6378295 C10.8858158,28.7888058 11.0765984,28.8428042 11.2275747,28.7584383 C11.2949205,28.7208054 11.3460047,28.6596372 11.3710323,28.5866625 L14.2266266,20.2604171 L14.2266266,20.2604171 C12.2981986,19.6508159 10.8775793,19.0964276 9.9647684,18.5972523 C9.05195754,18.098077 8.02804356,17.3156595 6.89302647,16.25 Z" id="Path-28" fill="#B8C0C8"></path>
                <path d="M18.9772105,16.25 L15.4650947,27.0366417 C15.4115494,27.2010934 15.5014569,27.3778148 15.6659086,27.4313601 C15.7462333,27.4575137 15.8337172,27.4501059 15.9085006,27.4108185 L19.8961387,25.3159152 C20.2001563,25.1561997 20.5760873,25.27109 20.7388814,25.5734703 L22.9006066,29.5887462 C22.9825916,29.7410285 23.1725028,29.7980157 23.3247852,29.7160307 C23.3974626,29.676903 23.4517529,29.6106637 23.4758493,29.5317185 L26.2266266,20.51953 L26.2266266,20.51953 C24.4464263,19.9867709 23.1485986,19.4802609 22.3331433,19 C21.517688,18.5197391 20.3990437,17.6030725 18.9772105,16.25 Z" id="Path-28-Copy" fill="#B8C0C8" transform="translate(20.726627, 23.250000) scale(-1, 1) translate(-20.726627, -23.250000) "></path>
                <path d="M14.7266266,0 C8.78956551,0 3.97662658,4.81293894 3.97662658,10.75 C3.97662658,16.6870611 8.78956551,21.5 14.7266266,21.5 C20.6636876,21.5 25.4766266,16.6870611 25.4766266,10.75 C25.4766266,4.81293894 20.6636876,0 14.7266266,0 Z M14.7266266,2.5 C19.2829758,2.5 22.9766266,6.19365081 22.9766266,10.75 C22.9766266,15.3063492 19.2829758,19 14.7266266,19 C10.1702774,19 6.47662658,15.3063492 6.47662658,10.75 C6.47662658,6.19365081 10.1702774,2.5 14.7266266,2.5 Z" id="Oval" fill="#A1ABB5" fill-rule="nonzero"></path>
                <path d="M34.7266266,47 C35.1408401,47 35.4766266,47.3357864 35.4766266,47.75 C35.4766266,48.1296958 35.1944727,48.443491 34.8283971,48.4931534 L34.7266266,48.5 L26.7266266,48.5 C26.312413,48.5 25.9766266,48.1642136 25.9766266,47.75 C25.9766266,47.3703042 26.2587805,47.056509 26.624856,47.0068466 L26.7266266,47 L34.7266266,47 Z" id="Line-3-Copy-23" fill="#A1ABB5" fill-rule="nonzero"></path>
                <path d="M43.7266266,43 C44.1408401,43 44.4766266,43.3357864 44.4766266,43.75 C44.4766266,44.1296958 44.1944727,44.443491 43.8283971,44.4931534 L43.7266266,44.5 L26.7266266,44.5 C26.312413,44.5 25.9766266,44.1642136 25.9766266,43.75 C25.9766266,43.3703042 26.2587805,43.056509 26.624856,43.0068466 L26.7266266,43 L43.7266266,43 Z" id="Line-3-Copy-24" fill="#A1ABB5" fill-rule="nonzero"></path>
                <path d="M43.7266266,39 C44.1408401,39 44.4766266,39.3357864 44.4766266,39.75 C44.4766266,40.1296958 44.1944727,40.443491 43.8283971,40.4931534 L43.7266266,40.5 L26.7266266,40.5 C26.312413,40.5 25.9766266,40.1642136 25.9766266,39.75 C25.9766266,39.3703042 26.2587805,39.056509 26.624856,39.0068466 L26.7266266,39 L43.7266266,39 Z" id="Line-3-Copy-25" fill="#A1ABB5" fill-rule="nonzero"></path>
                <path d="M39.9766266,27 C40.3908401,27 40.7266266,27.3357864 40.7266266,27.75 C40.7266266,28.1296958 40.4444727,28.443491 40.0783971,28.4931534 L39.9766266,28.5 L31.4766266,28.5 C31.062413,28.5 30.7266266,28.1642136 30.7266266,27.75 C30.7266266,27.3703042 31.0087805,27.056509 31.374856,27.0068466 L31.4766266,27 L39.9766266,27 Z" id="Line-3-Copy-26" fill="#A1ABB5" fill-rule="nonzero"></path>
                <path d="M39.9766266,23 C40.3908401,23 40.7266266,23.3357864 40.7266266,23.75 C40.7266266,24.1296958 40.4444727,24.443491 40.0783971,24.4931534 L39.9766266,24.5 L31.4766266,24.5 C31.062413,24.5 30.7266266,24.1642136 30.7266266,23.75 C30.7266266,23.3703042 31.0087805,23.056509 31.374856,23.0068466 L31.4766266,23 L39.9766266,23 Z" id="Line-3-Copy-27" fill="#A1ABB5" fill-rule="nonzero"></path>
                <path d="M58.7266266,38 C52.2372808,38 46.9766266,43.2606542 46.9766266,49.75 C46.9766266,56.2393458 52.2372808,61.5 58.7266266,61.5 C65.2159724,61.5 70.4766266,56.2393458 70.4766266,49.75 C70.4766266,43.2606542 65.2159724,38 58.7266266,38 Z M58.7266266,40.5 C63.8352605,40.5 67.9766266,44.6413661 67.9766266,49.75 C67.9766266,54.8586339 63.8352605,59 58.7266266,59 C53.6179926,59 49.4766266,54.8586339 49.4766266,49.75 C49.4766266,44.6413661 53.6179926,40.5 58.7266266,40.5 Z" id="Oval-Copy-3" fill="#A1ABB5" fill-rule="nonzero"></path>
                <circle id="Oval-Copy-4" fill="#A1ABB5" cx="58.7266266" cy="54.75" r="1.5"></circle>
                <path d="M58.7266266,43 C59.3738353,43 59.9061605,43.4918747 59.970173,44.1221948 L59.9766266,44.25 L59.9766266,51.25 C59.9766266,51.9403559 59.4169825,52.5 58.7266266,52.5 C58.0794179,52.5 57.5470927,52.0081253 57.4830802,51.3778052 L57.4766266,51.25 L57.4766266,44.25 C57.4766266,43.5596441 58.0362706,43 58.7266266,43 Z" id="Path-23-Copy" fill="#A1ABB5" fill-rule="nonzero"></path>
            </g>
        </g>
    </g>
</svg>