<?xml version="1.0" encoding="UTF-8"?>
<svg width="67px" height="70px" viewBox="0 0 67 70" version="1.1" xmlns="http://www.w3.org/2000/svg" xmlns:xlink="http://www.w3.org/1999/xlink">
    <!-- Generator: Sketch 61.2 (89653) - https://sketch.com -->
    <title>My courses</title>
    <desc>Created with Sketch.</desc>
    <g id="Page-1" stroke="none" stroke-width="1" fill="none" fill-rule="evenodd">
        <g id="Artboard" transform="translate(-70.000000, -238.000000)">
            <g id="My-courses" transform="translate(70.750000, 238.274105)">
                <path d="M63.25,37.7258948 L52.1759392,37.7258948 C49.9668002,37.7258948 48.1759392,35.9350338 48.1759392,33.7258948 L48.1759392,24.4557646 C48.1759392,23.3511951 47.2805087,22.4557646 46.1759392,22.4557646 L45.25,22.4557646 L45.25,22.4557646 L45.25,19.7258948 L49.824359,19.7258948 L62.8490459,34.4502806 L63.25,34.8640411 L63.25,37.7258948 Z" id="Path-15" fill="#E2E5E8"></path>
                <path d="M32.45,66.9743974 C38.5251322,66.9743974 43.45,62.0495297 43.45,55.9743974 C43.45,49.8992652 38.5251322,44.9743974 32.45,44.9743974 C30.2262933,44.9743974 28.1567002,45.6342366 26.4263338,46.7688022 C24.9128722,47.7611477 36.8082028,46.8774872 37.9634155,51.7258948 C38.3637438,53.406066 39.34344,58.2249373 38.4464393,60.7258948 C36.8062304,65.2990158 30.5059571,66.9743974 32.45,66.9743974 Z" id="Oval" fill="#E2E5E8"></path>
                <path d="M48.9313808,17.4758948 C49.216057,17.4758948 49.4907018,17.5730016 49.7110478,17.7488429 L49.8164909,17.8432397 L65.1351101,33.2044649 C65.3353986,33.4053105 65.4604178,33.6672064 65.49205,33.9463272 L65.5,34.08712 L65.5,58.7258948 C65.5,62.649878 62.3826035,65.8457541 58.4893142,65.9720196 L58.25,65.9758948 L36.9186281,65.9758948 C36.2282722,65.9758948 35.6686281,65.4162508 35.6686281,64.7258948 C35.6686281,64.0786861 36.1605028,63.5463609 36.7908229,63.4823484 L36.9186281,63.4758948 L58.25,63.4758948 C60.8004817,63.4758948 62.8814697,61.4657535 62.9951121,58.9433228 L63,58.7258948 L62.999,34.6028948 L48.413,19.9758948 L44.446328,19.9758948 C43.7991193,19.9758948 43.2667941,19.4840202 43.2027816,18.8537001 L43.196328,18.7258948 C43.196328,18.0786861 43.6882026,17.5463609 44.3185227,17.4823484 L44.446328,17.4758948 L48.9313808,17.4758948 Z M28.25,40.9017889 C28.8972087,40.9017889 29.4295339,41.3936636 29.4935464,42.0239836 L29.5,42.1517889 L29.5,46.4481004 C29.5,47.1384563 28.9403559,47.6981004 28.25,47.6981004 C27.6027913,47.6981004 27.0704661,47.2062257 27.0064536,46.5759056 L27,46.4481004 L27,42.1517889 C27,41.4614329 27.5596441,40.9017889 28.25,40.9017889 Z" id="Shape" fill="#A1ABB5" fill-rule="nonzero"></path>
                <path d="M28.75,45.4758948 C22.2606542,45.4758948 17,50.736549 17,57.2258948 C17,63.7152406 22.2606542,68.9758948 28.75,68.9758948 C35.2393458,68.9758948 40.5,63.7152406 40.5,57.2258948 C40.5,50.736549 35.2393458,45.4758948 28.75,45.4758948 Z M28.75,47.9758948 C33.8586339,47.9758948 38,52.1172609 38,57.2258948 C38,62.3345288 33.8586339,66.4758948 28.75,66.4758948 C23.6413661,66.4758948 19.5,62.3345288 19.5,57.2258948 C19.5,52.1172609 23.6413661,47.9758948 28.75,47.9758948 Z" id="Oval-Copy-3" fill="#A1ABB5" fill-rule="nonzero"></path>
                <circle id="Oval-Copy-4" fill="#A1ABB5" cx="28.75" cy="62.2258948" r="1.5"></circle>
                <path d="M28.75,50.4758948 C29.3972087,50.4758948 29.9295339,50.9677695 29.9935464,51.5980896 L30,51.7258948 L30,58.7258948 C30,59.4162508 29.4403559,59.9758948 28.75,59.9758948 C28.1027913,59.9758948 27.5704661,59.4840202 27.5064536,58.8537001 L27.5,58.7258948 L27.5,51.7258948 C27.5,51.0355389 28.0596441,50.4758948 28.75,50.4758948 Z" id="Path-23-Copy" fill="#A1ABB5" fill-rule="nonzero"></path>
                <path d="M49.6875423,18.0843843 L49.5925844,17.9955673 C49.4073292,17.8222925 49.1631478,17.7258948 48.9094873,17.7258948 L48.25,17.7258948 L48.25,17.7258948 L48.5358386,31.7868677 C48.56903,33.4196214 49.9021279,34.7258948 51.5352189,34.7258948 L65.068209,34.7258948 L65.068209,34.7258948 C65.1825638,33.9202723 64.9084922,33.1081059 64.329381,32.5364986 L49.6875423,18.0843843 L49.6875423,18.0843843 Z" id="Path-6-Copy-2" fill="#B8C0C8"></path>
                <path d="M13.2677819,18.7258948 L19.7284373,21.2827869 C19.0773791,28.0667583 19.414118,32.5477942 20.7386541,34.7258948 C22.7254582,37.9930457 26.5720252,40.2588015 33.0395135,39.6131716 C37.3511724,39.1827517 39.9323683,38.3283816 40.783101,37.0500613 L39.0679232,39.8263064 C34.4894373,41.0926987 31.2724706,41.7258948 29.4170231,41.7258948 C26.6338519,41.7258948 20.9782176,40.6353884 20.7386541,40.6353884 C20.5789451,40.6353884 19.0432383,39.9559044 16.1315335,38.5969363 L13.2677819,35.6900759 L12.5224732,30.618752 L12.6917406,20.4342776 L13.2677819,18.7258948 Z" id="Combined-Shape" fill="#E2E5E8"></path>
                <path d="M5.25,41.4758948 C2.35050506,41.4758948 0,43.8263999 0,46.7258948 C0,49.6253898 2.35050506,51.9758948 5.25,51.9758948 C8.14949494,51.9758948 10.5,49.6253898 10.5,46.7258948 C10.5,43.8263999 8.14949494,41.4758948 5.25,41.4758948 Z M5.25,43.9758948 C6.76878306,43.9758948 8,45.2071118 8,46.7258948 C8,48.2446779 6.76878306,49.4758948 5.25,49.4758948 C3.73121694,49.4758948 2.5,48.2446779 2.5,46.7258948 C2.5,45.2071118 3.73121694,43.9758948 5.25,43.9758948 Z" id="Oval-Copy-2" fill="#A1ABB5" fill-rule="nonzero"></path>
                <path d="M13.5,18.7258948 L13.5,33.5292743 C13.5,33.9870072 13.6793415,34.4265207 13.9995739,34.7535841 C17.7326263,38.5662692 22.7697411,40.4758948 29.1908939,40.4758948 C35.6069864,40.4758948 40.0575135,38.5777509 42.6845275,34.8179227 C42.855652,34.5730066 42.9606471,34.2892145 42.990892,33.9939364 L43,33.8156104 L43,18.7258948 L45.5,18.7258948 L45.5,33.8156104 C45.5,34.6863319 45.2325579,35.5360429 44.7338522,36.2497986 C41.5923185,40.7460161 36.3639818,42.9758948 29.1908939,42.9758948 C22.1266626,42.9758948 16.4407896,40.8203179 12.2132506,36.5025979 C11.4910941,35.7650365 11.0639666,34.7920025 11.0066325,33.7667219 L11,33.5292747 L11,18.7258948 L13.5,18.7258948 Z" id="Path-21-Copy" fill="#A1ABB5" fill-rule="nonzero"></path>
                <line x1="13.25" y1="18.7258948" x2="19.25" y2="20.7258948" id="Path-12" fill="#D8D8D8"></line>
                <path d="M25.9692365,0.562689611 L2.17652535,10.5262912 C0.775618605,11.1129446 0.115535911,12.7241805 0.702189382,14.1250873 C0.989204643,14.8104691 1.54135836,15.3505349 2.23292447,15.6223111 L25.3743264,24.7165708 C27.5889503,25.5868882 30.0537857,25.5702864 32.2564852,24.6702164 L54.432114,15.6087809 C55.8380503,15.0342853 56.5120662,13.4288281 55.9375706,12.0228918 C55.6664386,11.3593632 55.1469501,10.8279182 54.4897618,10.5417603 L31.6640299,0.602810466 C29.8506994,-0.18676339 27.7935118,-0.201256651 25.9692365,0.562689611 Z M30.6659718,2.89494481 L53.4917036,12.8338947 C53.551448,12.859909 53.5986742,12.9082222 53.6233226,12.968543 C53.6755494,13.0963554 53.6142753,13.242306 53.4864629,13.2945329 L31.3108341,22.3559684 C29.7034587,23.0127762 27.9047951,23.0248911 26.2887182,22.3897946 L3.14731624,13.2955348 C3.0844466,13.2708279 3.0342508,13.221731 3.00815851,13.1594236 C2.95482637,13.0320684 3.01483389,12.8855924 3.14218905,12.8322603 L26.9349002,2.86865874 C28.1301151,2.36814222 29.4779276,2.3776378 30.6659718,2.89494481 Z" id="Path-20-Copy-2" fill="#A1ABB5" fill-rule="nonzero"></path>
                <polygon id="Path-22-Copy" fill="#A1ABB5" fill-rule="nonzero" points="6 14.7258948 6 42.7258948 3.5 42.7258948 3.5 14.7258948"></polygon>
                <path d="M52.75,55.4758948 C53.1642136,55.4758948 53.5,55.8116813 53.5,56.2258948 C53.5,56.6055906 53.2178461,56.9193858 52.8517706,56.9690482 L52.75,56.9758948 L46.5555556,56.9758948 C46.141342,56.9758948 45.8055556,56.6401084 45.8055556,56.2258948 C45.8055556,55.8461991 46.0877094,55.5324039 46.453785,55.4827414 L46.5555556,55.4758948 L52.75,55.4758948 Z" id="Line-3-Copy-9" fill="#A1ABB5" fill-rule="nonzero"></path>
                <path d="M56.9444444,51.4758948 C57.358658,51.4758948 57.6944444,51.8116813 57.6944444,52.2258948 C57.6944444,52.6055906 57.4122906,52.9193858 57.046215,52.9690482 L56.9444444,52.9758948 L46.5555556,52.9758948 C46.141342,52.9758948 45.8055556,52.6401084 45.8055556,52.2258948 C45.8055556,51.8461991 46.0877094,51.5324039 46.453785,51.4827414 L46.5555556,51.4758948 L56.9444444,51.4758948 Z" id="Line-3-Copy-10" fill="#A1ABB5" fill-rule="nonzero"></path>
                <path d="M56.9444444,47.4758948 C57.358658,47.4758948 57.6944444,47.8116813 57.6944444,48.2258948 C57.6944444,48.6055906 57.4122906,48.9193858 57.046215,48.9690482 L56.9444444,48.9758948 L46.5555556,48.9758948 C46.141342,48.9758948 45.8055556,48.6401084 45.8055556,48.2258948 C45.8055556,47.8461991 46.0877094,47.5324039 46.453785,47.4827414 L46.5555556,47.4758948 L56.9444444,47.4758948 Z" id="Line-3-Copy-11" fill="#A1ABB5" fill-rule="nonzero"></path>
            </g>
        </g>
    </g>
</svg>