<?xml version="1.0" encoding="UTF-8"?>
<svg width="55px" height="71px" viewBox="0 0 55 71" version="1.1" xmlns="http://www.w3.org/2000/svg" xmlns:xlink="http://www.w3.org/1999/xlink">
    <!-- Generator: Sketch 61.2 (89653) - https://sketch.com -->
    <title>My membership</title>
    <desc>Created with Sketch.</desc>
    <g id="Page-1" stroke="none" stroke-width="1" fill="none" fill-rule="evenodd">
        <g id="Artboard" transform="translate(-480.000000, -239.000000)">
            <g id="My-membership" transform="translate(480.750000, 237.026650)">
                <path d="M12.9969517,27.1997938 C14.0991434,27.1997938 14.0785663,26.4205099 14.5730133,25.8072239 C14.9457152,25.3449441 15.9705961,25.1339924 15.9705961,24.5405603 C15.9705961,23.1598485 15.6829966,23.0218529 13.75,23.0218529 C11.8170034,23.0218529 10.25,24.141141 10.25,25.5218529 C10.25,26.9025648 11.063955,27.1997938 12.9969517,27.1997938 Z" id="Oval" fill="#E2E5E8"></path>
                <path d="M21.3719633,18.620023 C22.5008022,18.620023 21.9871053,17.6897873 22.6271161,17.0972019 C23.0830444,16.6750584 24.4939265,16.3802442 24.4939265,15.8058458 C24.4939265,14.425134 23.6829966,14.0218529 21.75,14.0218529 C19.8170034,14.0218529 18.25,15.141141 18.25,16.5218529 C18.25,17.9025648 19.4389666,18.620023 21.3719633,18.620023 Z" id="Oval-Copy-7" fill="#E2E5E8"></path>
                <path d="M30.6893398,9.39641357 C31.5271224,9.39641357 31.5203273,8.99688975 31.75,8.82886329 C32.0502458,8.60920612 32.4378292,8.53671668 32.4378292,7.75442093 C32.4378292,6.37370906 33.6829966,6.0218529 31.75,6.0218529 C29.8170034,6.0218529 28.25,7.14114102 28.25,8.5218529 C28.25,9.90256477 28.7563432,9.39641357 30.6893398,9.39641357 Z" id="Oval-Copy-8" fill="#E2E5E8"></path>
                <path d="M28.7536814,3 C31.580689,3 33.885813,5.23444888 33.9993024,8.03359538 L34.0036814,8.25 L34.0036814,9.70406339 L31.5036814,9.70406339 L31.5036814,8.25 C31.5036814,6.73121694 30.2724645,5.5 28.7536814,5.5 C27.2911496,5.5 26.0952771,6.6417046 26.0087002,8.08247767 L26.0036814,8.25 L26.0036814,9.32111064 L23.5036814,9.32111064 L23.5036814,8.25 C23.5036814,5.35050506 25.8541865,3 28.7536814,3 Z" id="Path" fill="#A1ABB5" fill-rule="nonzero" transform="translate(28.753681, 6.352032) rotate(-45.000000) translate(-28.753681, -6.352032) "></path>
                <path d="M11.9607316,18.914237 C14.7877391,18.914237 17.0928632,21.1486859 17.2063525,23.9478324 L17.2107316,24.164237 L17.2107316,26.2039267 L14.7107316,26.2039267 L14.7107316,24.164237 C14.7107316,22.645454 13.4795146,21.414237 11.9607316,21.414237 C10.4981997,21.414237 9.30232729,22.5559416 9.21575036,23.9967147 L9.21073157,24.164237 L9.21073157,26.1898779 L6.71073157,26.1898779 L6.71073157,24.164237 C6.71073157,21.2647421 9.06123663,18.914237 11.9607316,18.914237 Z" id="Path" fill="#A1ABB5" fill-rule="nonzero" transform="translate(11.960732, 22.559082) rotate(-45.000000) translate(-11.960732, -22.559082) "></path>
                <path d="M21.899622,64.0218529 L42.25,64.0218529 C44.459139,64.0218529 46.25,65.8127139 46.25,68.0218529 C46.25,70.2309919 44.459139,72.0218529 42.25,72.0218529 L17.3641776,72.0218529 C16.1965495,72.0218529 15.25,71.0753034 15.25,69.9076753 L15.25,69.9076753 L15.25,69.9076753 L21.899622,64.0218529 Z" id="Rectangle" fill="#B8C0C8"></path>
                <path d="M35.25,31.0218529 L33.2161607,33.1307325 C30.9077111,35.5243543 30.6019059,39.2117004 32.4845057,41.9529013 L33.2186394,43.0218529 L33.2186394,43.0218529 L34.4425643,41.9223204 L33.2186394,36.4335657 L35.25,31.0218529 Z" id="Path-49" fill="#E2E5E8"></path>
                <path d="M18.92158,8.51624055 C21.7485876,8.51624055 24.0537116,10.7506894 24.167201,13.5498359 L24.17158,13.7662406 L24.17158,18.3216484 L21.67158,18.3216484 L21.67158,13.7662406 C21.67158,12.2474575 20.4403631,11.0162406 18.92158,11.0162406 C17.4590482,11.0162406 16.2631757,12.1579452 16.1765988,13.5987182 L16.17158,13.7662406 L16.17158,18.5236201 L13.67158,18.5236201 L13.67158,13.7662406 C13.67158,10.8667456 16.0220851,8.51624055 18.92158,8.51624055 Z" id="Path" fill="#A1ABB5" fill-rule="nonzero" transform="translate(18.921580, 13.519930) rotate(-45.000000) translate(-18.921580, -13.519930) "></path>
                <path d="M31.1639948,6.35209115 C33.3660912,4.14999472 36.8994164,4.0904786 39.1734711,6.17354279 L39.3600052,6.35209115 L51.9197617,18.9118477 C54.1218582,21.1139441 54.1813743,24.6472693 52.0983101,26.921324 L51.9197617,27.1078581 L44.5818847,34.4457351 L42.8141178,32.6779682 L50.1519948,25.3400912 C51.3912848,24.1008011 51.4371845,22.1200333 50.2896937,20.825819 L50.1519948,20.6796146 L37.5922383,8.11985811 C36.3529482,6.88056806 34.3721804,6.83466843 33.0779661,7.98215921 L32.9317617,8.11985811 L11.3480052,29.7036146 C10.1087152,30.9429047 10.0628155,32.9236725 11.2103063,34.2178868 L11.3480052,34.3640912 L23.9077617,46.9238477 C25.1470518,48.1631377 27.1278196,48.2090374 28.4220339,47.0615466 L28.5682383,46.9238477 L33.890499,41.6015869 L35.658266,43.3693539 L30.3360052,48.6916146 C28.1339088,50.8937111 24.6005836,50.9532272 22.3265289,48.870163 L22.1399948,48.6916146 L9.58023826,36.1318581 C7.37814182,33.9297617 7.3186257,30.3964365 9.4016899,28.1223817 L9.58023826,27.9358477 L31.1639948,6.35209115 Z" id="Path" fill="#A1ABB5" fill-rule="nonzero"></path>
                <path d="M42.5412618,33.0218529 C47.0137539,39.7148202 49.25,44.1987284 49.25,46.4735776 C49.25,49.8858514 42.8266973,58.9336417 41.0335703,60.9924492 C39.8381523,62.3649875 38.3922618,62.3649875 36.6958989,60.9924492 L32.25,60.9924492 L42.8994766,49.6831961 C44.1821004,48.3211087 44.7559303,46.438668 44.4512243,44.5927102 L42.5412618,33.0218529 L42.5412618,33.0218529 Z" id="Path-54" fill="#E2E5E8"></path>
                <path d="M35.8115292,30.8711224 C32.6387372,32.8373468 31.3307215,36.8196217 32.7527559,40.2981645 L35.676,47.4483503 L22.3538307,61.1504284 C21.5833422,61.9427956 22.1447859,63.2718529 23.25,63.2718529 L41.25,63.2718529 C41.6710193,63.2718529 42.063754,63.0599096 42.2948544,62.7079865 L49.0086947,52.484052 C50.6672193,49.9584264 50.9184626,46.7598954 49.6746195,44.00629 L44.9880757,33.6312746 C44.9035965,33.4442554 44.8101045,33.2614397 44.7079288,33.0834705 C42.9611064,30.0408645 39.0785075,28.9904243 36.0359014,30.7372467 L35.8115292,30.8711224 Z M42.5398395,34.328215 C42.6018044,34.4361452 42.6585031,34.5470147 42.7097359,34.6604334 L47.3962797,45.0354489 L47.5021418,45.2837536 C48.2710322,47.1992682 48.0581836,49.3769979 46.918986,51.1117847 L40.575,60.7713503 L26.209,60.7713503 L38.039238,48.6057036 C38.3857963,48.2493045 38.4882295,47.7214241 38.3001196,47.2612746 L35.0668577,39.3521556 C34.0856968,36.9520657 35.0319941,34.196333 37.2806459,32.905336 C39.0663266,31.8801402 41.3290895,32.4436772 42.433337,34.1534349 L42.5398395,34.328215 Z" id="Path-45" fill="#A1ABB5" fill-rule="nonzero"></path>
                <path d="M11.75,48.7718529 C5.26065419,48.7718529 0,54.0325071 0,60.5218529 C0,67.0111987 5.26065419,72.2718529 11.75,72.2718529 C18.2393458,72.2718529 23.5,67.0111987 23.5,60.5218529 C23.5,54.0325071 18.2393458,48.7718529 11.75,48.7718529 Z M11.75,51.2718529 C16.8586339,51.2718529 21,55.413219 21,60.5218529 C21,65.6304868 16.8586339,69.7718529 11.75,69.7718529 C6.64136606,69.7718529 2.5,65.6304868 2.5,60.5218529 C2.5,55.413219 6.64136606,51.2718529 11.75,51.2718529 Z" id="Oval-Copy-3" fill="#A1ABB5" fill-rule="nonzero"></path>
                <circle id="Oval-Copy-4" fill="#A1ABB5" cx="11.75" cy="65.5218529" r="1.5"></circle>
                <path d="M11.75,53.7718529 C12.3972087,53.7718529 12.9295339,54.2637276 12.9935464,54.8940477 L13,55.0218529 L13,62.0218529 C13,62.7122088 12.4403559,63.2718529 11.75,63.2718529 C11.1027913,63.2718529 10.5704661,62.7799782 10.5064536,62.1496581 L10.5,62.0218529 L10.5,55.0218529 C10.5,54.331497 11.0596441,53.7718529 11.75,53.7718529 Z" id="Path-23-Copy" fill="#A1ABB5" fill-rule="nonzero"></path>
                <path d="M16.9237311,27.3458172 C15.5314933,28.82507 15.4776983,31.1685134 16.8264572,32.6015698 L17.6046488,33.4283983 C18.9784511,34.8880633 21.2593328,34.8289551 22.6747778,33.3250448 L22.8052404,33.1790015 C24.0738544,31.6740316 24.0678505,29.4460784 22.7720517,28.0692922 L21.9938601,27.2424637 C20.6200578,25.7827987 18.3391761,25.8419069 16.9237311,27.3458172 Z" id="Combined-Shape" fill="#A1ABB5" fill-rule="nonzero"></path>
                <path d="M28.8490366,32.8816564 L22.8470217,33.0635356 C20.8236081,33.1248512 19.1568631,34.8317891 19.094654,36.8846863 L19.0516646,38.3033371 C19.0354615,38.8380388 19.473234,39.2758112 20.0079356,39.2596081 L31.0734118,38.9242907 C31.5641869,38.9094187 31.9585596,38.515046 31.9734316,38.0242709 L32.0330891,36.0555719 C32.0875871,34.2571386 30.6502288,32.8270748 28.8490366,32.8816564 Z M28.9052878,34.7379471 L29.0329147,34.7399494 C29.7030545,34.7817952 30.1975288,35.3152149 30.1767984,35.9993206 L30.143,37.0933503 L20.937,37.3723503 L20.9509448,36.9409376 C20.9836994,35.8600352 21.8712319,34.9511004 22.9032729,34.9198264 L28.9052878,34.7379471 Z" id="Stroke-5718" fill="#A1ABB5" fill-rule="nonzero" transform="translate(25.542909, 36.070094) rotate(-45.000000) translate(-25.542909, -36.070094) "></path>
                <path d="M35.8837843,16.1626901 C36.2979978,16.1626901 36.6337843,16.4984766 36.6337843,16.9126901 C36.6337843,17.2923859 36.3516304,17.6061811 35.9855548,17.6558435 L35.8837843,17.6626901 L25.4948954,17.6626901 C25.0806818,17.6626901 24.7448954,17.3269037 24.7448954,16.9126901 C24.7448954,16.5329944 25.0270493,16.2191992 25.3931248,16.1695367 L25.4948954,16.1626901 L35.8837843,16.1626901 Z" id="Line-3-Copy-25" fill="#A1ABB5" fill-rule="nonzero" transform="translate(30.689340, 16.912690) rotate(-45.000000) translate(-30.689340, -16.912690) "></path>
                <path d="M38.0051046,18.2840105 C38.4193182,18.2840105 38.7551046,18.6197969 38.7551046,19.0340105 C38.7551046,19.4137062 38.4729507,19.7275014 38.1068752,19.7771638 L38.0051046,19.7840105 L27.6162157,19.7840105 C27.2020022,19.7840105 26.8662157,19.448224 26.8662157,19.0340105 C26.8662157,18.6543147 27.1483696,18.3405195 27.5144452,18.2908571 L27.6162157,18.2840105 L38.0051046,18.2840105 Z" id="Line-3-Copy-24" fill="#A1ABB5" fill-rule="nonzero" transform="translate(32.810660, 19.034010) rotate(-45.000000) translate(-32.810660, -19.034010) "></path>
            </g>
        </g>
    </g>
</svg>