<?xml version="1.0" encoding="UTF-8"?>
<svg width="65px" height="72px" viewBox="0 0 65 72" version="1.1" xmlns="http://www.w3.org/2000/svg" xmlns:xlink="http://www.w3.org/1999/xlink">
    <!-- Generator: Sketch 61.2 (89653) - https://sketch.com -->
    <title>No notifications@1x</title>
    <desc>Created with Sketch.</desc>
    <g id="Page-1" stroke="none" stroke-width="1" fill="none" fill-rule="evenodd">
        <g id="LifterLMS-Dashbaord-Empty" transform="translate(-879.000000, -1417.000000)">
            <g id="No-notifications" transform="translate(879.500568, 1417.750000)">
                <path d="M21.5207084,12.3474729 C24.0565389,14.0156076 27.6835641,16.8912879 29.951049,20.2959522 C34.0487348,26.4486921 36.292583,33.9945302 37.9740537,36.8912065 C39.7153371,39.8909224 44.4223004,40.8176613 52.0949438,39.6714235 L44.2698532,29.4300984 L35.3933523,12.3474729 L25.2271318,7.06510557 C18.0105448,7.4648807 16.7750704,9.22566982 21.5207084,12.3474729 Z" id="Path-47" fill="#E2E5E8"></path>
                <path d="M11.080577,-1.49213975e-13 C14.2831307,-1.49213975e-13 16.8793135,2.59618275 16.8793135,5.79873646 C16.8793135,6.17112643 16.8442109,6.53531776 16.7771342,6.8881821 L17.1571713,6.8029456 C27.1783483,4.62757084 35.1983018,8.50621637 40.9707789,18.2668819 L41.2036499,18.6659515 L41.2500705,18.7545987 L42.3779348,21.1126825 C43.7329529,23.9221272 45.4273886,27.362668 47.4609029,31.4335398 C48.588958,33.6917821 50.5394569,35.4319276 52.9112487,36.2960899 C55.3063944,37.1687573 57.0064434,38.2426414 57.9972073,39.5738238 C59.766255,41.9507018 60.3493728,44.757983 59.531997,47.7309981 C62.1092497,49.8861047 63.7494319,53.1265098 63.7494319,56.75 C63.7494319,63.2393458 58.4887778,68.5 51.9994319,68.5 C48.0810863,68.5 44.6107082,66.582023 42.4759072,63.6336784 C40.9624805,64.4387664 39.3461633,65.2419771 37.6278544,66.0433158 L36.7287829,66.4581751 L36.6297949,66.4983545 C22.8333129,71.4227896 12.4291947,71.7987666 6.16415719,68.376468 C6.03771086,68.3073963 5.91336843,68.2368384 5.79113683,68.1648428 C4.08674034,67.2888107 2.8162543,66.1444034 2.11395357,64.7399845 C0.186308896,61.7979508 0.12077886,58.1712781 2.08728696,55.0504108 C2.63975159,54.2290281 3.03135753,53.4701835 3.29205253,52.7238686 C3.82488567,51.1984796 3.8589245,49.6170391 3.42650998,47.2514081 L3.35436237,46.8712645 C3.04144038,45.2786609 1.07351676,37.6671732 0.817517743,36.60408 C-1.49246783,25.2585272 1.09192051,16.6586003 8.58293184,11.0338245 C6.6307161,10.1005287 5.28184053,8.10715598 5.28184053,5.79873646 C5.28184053,2.59618275 7.87802328,-1.49213975e-13 11.080577,-1.49213975e-13 Z M26.839926,44.1952696 L25.971011,44.5178572 C12.0145558,49.8015762 2.51854742,58.3622132 4.29246138,63.2360017 C4.40388129,63.5421254 4.55915876,63.8337592 4.75549803,64.1104899 C5.20360307,64.6367513 5.74453989,65.1283478 6.37719728,65.5720438 C11.344332,68.6630647 23.571789,68.5434458 34.8975217,64.0072597 C37.0312359,63.1526638 39.0779063,62.214369 41.0111567,61.208111 L41.1046749,61.1590648 C40.5531578,59.7976051 40.2494319,58.3092721 40.2494319,56.75 C40.2494319,50.2606542 45.5100861,45 51.9994319,45 C53.620801,45 55.1654684,45.3283989 56.5705473,45.9223099 C56.6077467,45.3323314 56.5331146,44.7872527 56.3514327,44.2880858 C54.5409432,39.3138068 41.268917,38.9435463 26.839926,44.1952696 Z M51.9994319,47.5 C46.890798,47.5 42.7494319,51.6413661 42.7494319,56.75 C42.7494319,61.8586339 46.890798,66 51.9994319,66 C57.1080659,66 61.2494319,61.8586339 61.2494319,56.75 C61.2494319,51.6413661 57.1080659,47.5 51.9994319,47.5 Z M51.9994319,59.75 C52.8278591,59.75 53.4994319,60.4215729 53.4994319,61.25 C53.4994319,62.0784271 52.8278591,62.75 51.9994319,62.75 C51.1710048,62.75 50.4994319,62.0784271 50.4994319,61.25 C50.4994319,60.4215729 51.1710048,59.75 51.9994319,59.75 Z M51.9994319,50 C52.6466406,50 53.1789658,50.4918747 53.2429783,51.1221948 L53.2494319,51.25 L53.2494319,57.75 C53.2494319,58.4403559 52.6897879,59 51.9994319,59 C51.3522233,59 50.819898,58.5081253 50.7558856,57.8778052 L50.7494319,57.75 L50.7494319,51.25 C50.7494319,50.5596441 51.309076,50 51.9994319,50 Z M17.3265189,9.32704819 L17.0524319,9.392 L13.9086465,10.9317644 L10.9334319,12.425 L10.6596936,12.6148265 C3.65955612,17.5366376 1.15799783,25.1198015 3.15875252,35.5617442 L3.25742968,36.0611411 L5.02505783,43.072888 C5.38868284,44.5414366 5.69488245,45.8163181 5.80745845,46.3892691 C6.39242347,49.3664245 6.38214124,51.4586422 5.65220599,53.548293 C5.58941819,53.7280413 5.52120868,53.9074057 5.44755886,54.0865365 C9.62726942,49.5899037 16.8103268,45.1443 25.4819452,41.9243902 L25.9506736,41.7520689 C35.5944196,38.2420324 44.8495544,37.0466446 51.131356,38.2640138 C48.5772115,37.0933435 46.4886821,35.0816572 45.2244128,32.5507291 L42.9403478,27.9549328 C41.8796734,25.8082268 40.9410197,23.8882725 40.1243135,22.1949047 L39.0154319,19.877 L38.8075352,19.5201587 C33.5013156,10.5567007 26.4259494,7.21834804 17.3265189,9.32704819 Z M10.9397658,18.2629663 C11.4848894,18.68656 11.583409,19.4718604 11.1598154,20.0169841 C9.40701536,22.2726666 8.61763251,24.7284675 8.7673158,27.4363395 C8.92591925,30.3055831 10.2321203,35.4725717 12.6856494,42.8558071 C12.9033562,43.5109369 12.5487547,44.2185107 11.8936249,44.4362175 C11.238495,44.6539242 10.5309212,44.2993228 10.3132145,43.6441929 L9.94395912,42.5234443 C7.66106302,35.5323473 6.43686251,30.5725979 6.27112651,27.5743216 C6.08774741,24.2568696 7.06740493,21.2091168 9.18574806,18.4830159 C9.60934166,17.9378923 10.3946421,17.8393727 10.9397658,18.2629663 Z M11.080577,2.5 C9.25873515,2.5 7.78184053,3.97689462 7.78184053,5.79873646 C7.78184053,7.6205783 9.25873515,9.09747292 11.080577,9.09747292 C12.9024188,9.09747292 14.3793135,7.6205783 14.3793135,5.79873646 C14.3793135,3.97689462 12.9024188,2.5 11.080577,2.5 Z" id="Combined-Shape" fill="#A1ABB5" fill-rule="nonzero"></path>
                <path d="M13.3964437,55.75463 C16.2107998,53.573202 19.0389669,51.7919183 21.880945,50.4107789 C24.7302042,49.0261011 27.8470164,47.9203418 31.2313819,47.0935011 L31.2313801,47.0934939 C31.7678893,46.9624184 32.3090737,47.2910873 32.4401493,47.8275965 C32.4633084,47.9223897 32.4724683,48.0200622 32.4673376,48.1175085 C32.259509,52.0647854 30.3752599,55.053304 26.8145903,57.0830642 C21.7894919,59.7544522 17.3417703,59.856159 13.4714255,57.3881845 L13.471415,57.388201 C13.0057387,57.0912566 12.8689544,56.4730304 13.1658988,56.0073541 C13.2276613,55.9104965 13.3056504,55.8250046 13.3964437,55.75463 Z" id="Path-11" fill="#B8C0C8"></path>
            </g>
        </g>
    </g>
</svg>