<?xml version="1.0" encoding="UTF-8"?>
<svg width="65px" height="72px" viewBox="0 0 65 72" version="1.1" xmlns="http://www.w3.org/2000/svg" xmlns:xlink="http://www.w3.org/1999/xlink">
    <!-- Generator: Sketch 61.2 (89653) - https://sketch.com -->
    <title>No order history@1x</title>
    <desc>Created with Sketch.</desc>
    <g id="Page-1" stroke="none" stroke-width="1" fill="none" fill-rule="evenodd">
        <g id="LifterLMS-Dashbaord-Empty" transform="translate(-883.000000, -1686.000000)">
            <g id="No-order-history" transform="translate(883.233879, 1686.058575)">
                <path d="M54.0906289,7.51302932 L58.9483235,9.24673642 L54.0906289,22.8012 L48.1094481,38.9699403 C44.9935744,40.5073925 42.997783,41.9881768 42.1220739,43.4122931 C41.2463647,44.8364095 40.6791557,47.5236879 40.4204469,51.4741286 C41.5505783,53.4524878 41.9531901,54.7304145 41.6282823,55.3079087 C41.0594621,56.3189353 40.5543688,57.0798992 40.1130025,57.5908005 C39.2934763,58.5394387 37.957921,59.4775917 36.1063366,60.4052592 L36.1063366,60.4052592 L29.7971206,55.8100293 L29.8841574,55.8605283 C31.2891585,56.6021276 33.2740855,55.9628175 35.8389383,53.9425981 L36.1063366,53.7286839 C40.6872757,50.0084017 45.7840742,29.9841371 47.6765001,20.3903497 C48.9381173,13.9944914 51.0761603,9.70205129 54.0906289,7.51302932 L54.0906289,7.51302932 Z M1.96053182,35.7474537 L8.86374033,38.4557869 C7.71197565,39.003381 7.34755723,40.9631903 7.77048506,44.3352149 C8.19341289,47.7072395 12.0524344,51.0895824 19.3475496,54.4822435 L4.13963748,47.6876444 L0.766120612,40.028524 L1.96053182,35.7474537 Z" id="Combined-Shape" fill="#E2E5E8"></path>
                <path d="M25.8453055,0.0125966342 L26.0285815,0.0340386949 L26.2122549,0.0661645762 L57.1938051,6.39478059 C57.3582196,6.42836561 57.519786,6.4746341 57.6770548,6.53317099 C58.7674427,6.93902309 59.5107456,7.86802758 59.7282623,8.92958046 L59.6142337,8.90187513 C59.7626531,8.93219282 59.9087711,8.97285026 60.0515191,9.02355005 C61.7223839,9.61699087 62.6054954,11.4374845 62.0445057,13.1207323 C62.046231,13.1216757 62.0488756,13.1226112 62.0515191,13.12355 C63.7429301,13.7242882 64.627095,15.5824422 64.0231544,17.2827627 L56.0471964,39.2096102 C59.6110109,41.227535 62.0161206,45.0536084 62.0161206,49.4414252 C62.0161206,55.930771 56.7554664,61.1914252 50.2661206,61.1914252 C49.5342236,61.1914252 48.817956,61.124508 48.1231022,60.996458 L45.0812212,69.3606281 C45.0544997,69.4358639 45.0250149,69.5100895 44.9928267,69.5831539 C44.2950351,71.1670819 42.4864754,71.9163506 40.9238417,71.33511 L40.7512967,71.2650271 L12.5571691,60.0763936 C11.070367,59.4213903 10.3043003,57.7757075 10.7368293,56.2290977 L10.787,56.067 L10.5571691,55.9763936 C9.07036702,55.3213903 8.3043003,53.6757075 8.72525452,52.1649284 L8.91732985,51.5333352 C8.16222906,51.190732 7.49235344,50.8764567 6.91056037,50.5919292 L6.91056037,50.5919292 L6.28947422,50.2824878 C0.997375476,47.5909677 -0.97734679,42.9158342 0.449837878,36.611803 C0.724205849,35.3998188 1.92914029,34.6397428 3.14111885,34.9141255 C3.26295288,34.9417078 3.38227831,34.9793883 3.49785813,35.0267762 L3.49785813,35.0267762 L10.048,37.712 L22.4944856,2.17614939 C22.9904243,0.760102133 24.3816406,-0.116745066 25.8453055,0.0125966342 Z M13.4401913,57.7263649 L13.5221558,57.7706101 L41.7162834,68.9592436 C42.0953431,69.1262365 42.5380062,68.9543224 42.7049991,68.5752627 L42.7286003,68.515001 L45.7233248,60.2810418 C45.4816735,60.1796472 45.2441276,60.0704076 45.0110057,59.9536416 L43.0812212,65.2606281 C43.0544997,65.3358639 43.0250149,65.4100895 42.9928267,65.4831539 C42.2950351,67.0670819 40.4864754,67.8163506 38.9238417,67.23511 L38.7512967,67.1650271 L13.1249082,56.9952526 C13.0818908,57.2885574 13.2140568,57.581001 13.4401913,57.7263649 Z M11.2192405,52.5513252 L11.1577327,52.7596623 C11.0432618,53.0945937 11.1790875,53.4585221 11.4401913,53.6263649 L11.5221558,53.6706101 L39.7162834,64.8592436 C40.0953431,65.0262365 40.5380062,64.8543224 40.7049991,64.4752627 L40.7286003,64.415001 L42.8569292,58.5614699 C42.4092823,58.1973543 41.9889585,57.800941 41.5995084,57.3757806 C41.0280645,58.3372356 40.4775632,59.0507361 39.8991546,59.5830033 C38.5760932,60.8005203 37.5943897,61.0194518 35.0601051,60.9067332 L34.5949203,60.8835821 C34.4834471,60.8858181 34.3657027,60.8734917 34.2423755,60.8443632 C30.4773378,59.955101 27.6983415,59.1663001 25.8853754,58.468199 L25.8853754,58.468199 L23.6389296,57.5986164 C18.5742036,55.6273838 14.3938318,53.9248381 11.2192405,52.5513252 Z M50.2661206,40.1914252 C45.1574867,40.1914252 41.0161206,44.3327913 41.0161206,49.4414252 C41.0161206,54.5500591 45.1574867,58.6914252 50.2661206,58.6914252 C55.3747545,58.6914252 59.5161206,54.5500591 59.5161206,49.4414252 C59.5161206,44.3327913 55.3747545,40.1914252 50.2661206,40.1914252 Z M24.8981922,2.9008181 L24.8539641,3.00250363 L12.365,38.662 L28.6486849,45.3386661 C29.807674,45.8138328 30.4920494,47.0074715 30.3329222,48.2351306 L30.3044119,48.410668 C29.7143002,51.4296465 29.7910585,53.6055859 30.4508706,54.910962 C31.2034922,56.399953 32.6893428,57.5879045 34.9752399,58.4599308 L34.799,58.39 L35.1094629,58.4068347 C37.0207065,58.4982305 37.5107113,58.3834716 38.2062871,57.743384 C38.7401906,57.2520715 39.3135638,56.4263096 39.9864263,55.1376897 C39.0495391,53.4496452 38.5161206,51.5078285 38.5161206,49.4414252 C38.5161206,44.1932151 41.9569278,39.7486486 46.7057558,38.2405122 L50.7754495,27.2565052 C52.9181172,21.4792147 55.0750505,15.6739296 57.2462506,9.84064649 C57.3907448,9.45245624 57.1931835,9.02062892 56.804982,8.87613683 L56.7498399,8.85800912 L56.693461,8.84420007 L25.7119108,2.51558406 C25.3811551,2.44802042 25.0512504,2.60972661 24.8981922,2.9008181 Z M2.82512061,37.4524252 L2.75161905,37.8215393 C1.83646616,42.6852049 3.36879451,45.9922958 7.42279917,48.0541309 C10.3143235,49.5247376 16.221413,52.0290645 24.5550715,55.2724975 L24.5550715,55.2724975 L27.0478213,56.2347775 C27.5008301,56.4022207 28.0180761,56.5769149 28.5992329,56.7587006 L28.5992329,56.7587006 L28.6421206,56.7714252 L28.5170657,56.574272 C28.4640526,56.4869663 28.4127615,56.3986856 28.3631977,56.3094284 L28.3631977,56.3094284 L28.2196944,56.0387267 C27.2590403,54.1381629 27.164029,51.4447874 27.8508448,47.9310758 C27.8737305,47.8139939 27.8107068,47.6970601 27.7003158,47.6518017 L27.7003158,47.6518017 L2.82512061,37.4524252 Z M50.2661206,42.6914252 C50.9133293,42.6914252 51.4456545,43.1832999 51.509667,43.81362 L51.5161206,43.9414252 L51.5161206,50.4414252 C51.5161206,51.1317811 50.9564765,51.6914252 50.2661206,51.6914252 C49.6189119,51.6914252 49.0865867,51.1995505 49.0225742,50.5692304 L49.0161206,50.4414252 L49.0161206,43.9414252 C49.0161206,43.2510693 49.5757647,42.6914252 50.2661206,42.6914252 Z M61.19,15.472 L52.9926151,38.0093837 C53.2478583,38.0700316 53.499876,38.1390061 53.7483655,38.2160045 L61.6705334,16.4371357 C61.8091653,16.0468101 61.6051273,15.6180053 61.2148017,15.4793734 L61.19,15.472 Z M59.3240843,11.428205 L56.1280143,20.0206187 C54.4035027,24.6626157 52.6881206,29.2866962 50.9818682,33.8928601 L49.5675349,37.7118486 C49.7986651,37.6982964 50.0315904,37.6914252 50.2661206,37.6914252 C50.3267593,37.6914252 50.3872907,37.6918845 50.4477116,37.6927999 L59.6705334,12.3371357 C59.795574,11.9850773 59.6418411,11.6017148 59.3240843,11.428205 Z" id="Combined-Shape" fill="#A1ABB5" fill-rule="nonzero"></path>
                <path d="M27.4798983,12.05646 L26.4829731,14.7517883 C26.1955894,15.528771 26.5924877,16.3916105 27.3694704,16.6789943 C27.3867355,16.6853802 27.4041168,16.6914477 27.4216053,16.6971938 L29.2848582,17.3093902 C30.0586722,17.563637 30.893976,17.1538982 31.1665759,16.3863574 L32.1753605,13.5459927 C32.4526175,12.7653392 32.0445341,11.9077331 31.2638805,11.630476 C31.2181221,11.6142245 31.1716016,11.6002045 31.1244833,11.5884656 L29.2493711,11.1213056 C28.5074082,10.9364551 27.7451552,11.3393008 27.4798983,12.05646 Z" id="Path-61" fill="#B8C0C8"></path>
                <path d="M34.6397225,14.6243529 L34.1434221,15.9661712 C33.9518329,16.4841597 34.2164318,17.059386 34.7344202,17.2509752 C34.7705697,17.2643458 34.8074619,17.2756153 34.8449122,17.2847273 L44.9195151,19.735958 C45.4176155,19.8571497 45.9266912,19.5820532 46.0982583,19.0989837 L46.6076339,17.6647701 C46.7924719,17.1443344 46.5204163,16.572597 45.9999806,16.387759 C45.9649298,16.3753103 45.9292117,16.364827 45.892993,16.3563578 L35.8053148,13.9975224 C35.3143148,13.8827103 34.8146465,14.1514211 34.6397225,14.6243529 Z" id="Path-61-Copy-2" fill="#A1ABB5"></path>
                <path d="M30.6397225,25.6243529 L30.1434221,26.9661712 C29.9518329,27.4841597 30.2164318,28.059386 30.7344202,28.2509752 C30.7705697,28.2643458 30.8074619,28.2756153 30.8449122,28.2847273 L40.9195151,30.735958 C41.4176155,30.8571497 41.9266912,30.5820532 42.0982583,30.0989837 L42.6076339,28.6647701 C42.7924719,28.1443344 42.5204163,27.572597 41.9999806,27.387759 C41.9649298,27.3753103 41.9292117,27.364827 41.892993,27.3563578 L31.8053148,24.9975224 C31.3143148,24.8827103 30.8146465,25.1514211 30.6397225,25.6243529 Z" id="Path-61-Copy-3" fill="#A1ABB5" transform="translate(36.367903, 27.872920) rotate(3.000000) translate(-36.367903, -27.872920) "></path>
                <path d="M23.5937195,22.7149966 L22.5967943,25.4103249 C22.3094105,26.1873076 22.7063088,27.0501471 23.4832915,27.3375309 C23.5005567,27.3439167 23.5179379,27.3499843 23.5354265,27.3557304 L25.3986793,27.9679267 C26.1724933,28.2221736 27.0077971,27.8124348 27.280397,27.044894 L28.2891816,24.2045293 C28.5664387,23.4238757 28.1583552,22.5662697 27.3777016,22.2890126 C27.3319433,22.2727611 27.2854228,22.2587411 27.2383045,22.2470021 L25.3631923,21.7798422 C24.6212294,21.5949917 23.8589763,21.9978373 23.5937195,22.7149966 Z" id="Path-61-Copy" fill="#B8C0C8"></path>
                <circle id="Oval" fill="#A1ABB5" cx="50.2661206" cy="53.9414252" r="1.5"></circle>
            </g>
        </g>
    </g>
</svg>