<svg xmlns="http://www.w3.org/2000/svg" xmlns:xlink="http://www.w3.org/1999/xlink" width="229" height="158">
  <defs>
    <linearGradient id="b" x1="50%" x2="50%" y1="162.403%" y2="0%">
      <stop offset="0%" stop-color="#FFF" stop-opacity="0"/>
      <stop offset="100%" stop-color="#E9F1F9"/>
    </linearGradient>
    <path id="a" d="M228.555 103.462c2.672 9.847-7.195 21.604-16.336 25.05-15.392 5.802-27.294 5.343-38.175 10.492C163.059 144.201 136.806 158 121.383 158c-39.138 0-54.083-7.046-79.902-18.996C13.65 126.123-3.774 132.446.698 103.462h227.857z"/>
  </defs>
  <g fill="none" fill-rule="evenodd">
    <g fill-rule="nonzero" opacity=".7" transform="translate(99.287 20.853)">
      <path fill="#D7DEE5" d="M3.2 0h84.079a3.2 3.2 0 0 1 3.2 3.2v81.013H0V3.2A3.2 3.2 0 0 1 3.2 0z"/>
      <path fill="#FFF" d="M3.847 7.192h82.785c.707 0 1.28.573 1.28 1.28V84.01H2.567V8.472c0-.707.573-1.28 1.28-1.28z"/>
      <ellipse cx="4.171" cy="4.179" fill="#939597" rx="1" ry="1"/>
      <ellipse cx="7.379" cy="4.179" fill="#939597" rx="1" ry="1"/>
      <ellipse cx="10.588" cy="4.179" fill="#939597" rx="1" ry="1"/>
      <path fill="#FFF" d="M18.611 2.571h57.385a1.286 1.286 0 1 1 0 2.571H18.611a1.286 1.286 0 0 1 0-2.571z"/>
    </g>
    <g fill-rule="nonzero" transform="translate(29.626)">
      <path fill="#D7DEE5" d="M4 0h104.899a4 4 0 0 1 4 4v101.066H0V4a4 4 0 0 1 4-4z"/>
      <path fill="#FFF" d="M4.803 8.973h103.293a1.6 1.6 0 0 1 1.6 1.6v94.238H3.203V10.573a1.6 1.6 0 0 1 1.6-1.6z"/>
      <ellipse cx="5.205" cy="5.213" fill="#939597" rx="1.201" ry="1.203"/>
      <ellipse cx="9.208" cy="5.213" fill="#939597" rx="1.201" ry="1.203"/>
      <ellipse cx="13.212" cy="5.213" fill="#939597" rx="1.201" ry="1.203"/>
      <path fill="#FFF" d="M23.223 3.208H94.48a1.604 1.604 0 0 1 0 3.208H23.223a1.604 1.604 0 0 1 0-3.208z"/>
    </g>
    <path stroke="#C8CBCF" stroke-linecap="round" stroke-linejoin="round" stroke-width="1.2" d="M96.115 62.202a13.963 13.963 0 0 0-10.24-4.456c-3.92 0-7.465 1.613-10.008 4.211"/>
    <ellipse cx="78.269" cy="44.914" fill="#C8CBCF" fill-rule="nonzero" rx="1.601" ry="1.604"/>
    <ellipse cx="94.283" cy="44.914" fill="#C8CBCF" fill-rule="nonzero" rx="1.601" ry="1.604"/>
    <use fill="url(#b)" xlink:href="#a"/>
  </g>
</svg>
