<svg width="60" height="60" viewBox="0 0 60 60" version="1.1" xmlns="http://www.w3.org/2000/svg" xmlns:xlink="http://www.w3.org/1999/xlink">
<title>Group 3</title>
<desc>Created using Figma</desc>
<g id="Canvas" transform="translate(-17606 -116)">
<g id="Group 3">
<g id="icon" opacity="0.5">
<g id="Stroke 290">
<use xlink:href="#path0_fill" transform="translate(17625 135)" fill="#9CA8B4"/>
</g>
<g id="Stroke 289 Copy">
<use xlink:href="#path1_stroke" transform="translate(17629.7 139.586)" fill="#FFFFFF"/>
</g>
<g id="Stroke 289 Copy 2">
<use xlink:href="#path1_stroke" transform="translate(17629.7 143.822)" fill="#FFFFFF"/>
</g>
<g id="Stroke 289 Copy 3">
<use xlink:href="#path2_stroke" transform="translate(17636.8 150.48)" fill="#FFFFFF"/>
</g>
<g id="Stroke 627 Copy 2">
<use xlink:href="#path3_stroke" transform="translate(17629.9 150.48)" fill="#FFFFFF"/>
</g>
</g>
<g id="Oval 8 Copy" opacity="0.5">
<use xlink:href="#path4_stroke" transform="translate(17607 117)" fill="#9CA8B4"/>
</g>
</g>
</g>
<defs>
<path id="path0_fill" fill-rule="evenodd" d="M 18.5294 2.178e-15C 19.8939 9.75122e-16 21 1.10612 21 2.47059L 21 20.5294C 21 21.8939 19.8939 23 18.5294 23L 2.47059 23C 1.10612 23 0 21.8939 0 20.5294L 0 2.47059C 0 1.10612 1.10612 1.75378e-14 2.47059 1.6335e-14L 18.5294 2.178e-15Z"/>
<path id="path1_stroke" d="M 0 0.46935C -0.40934 0.46935 -0.741176 0.801186 -0.741176 1.21053C -0.741176 1.61987 -0.40934 1.9517 0 1.9517L 0 0.46935ZM 11.7353 1.9517C 12.1446 1.9517 12.4765 1.61987 12.4765 1.21053C 12.4765 0.801186 12.1446 0.46935 11.7353 0.46935L 11.7353 1.9517ZM 0 1.9517L 11.7353 1.9517L 11.7353 0.46935L 0 0.46935L 0 1.9517Z"/>
<path id="path2_stroke" d="M 0 0.46935C -0.40934 0.46935 -0.741176 0.801186 -0.741176 1.21053C -0.741176 1.61987 -0.40934 1.9517 0 1.9517L 0 0.46935ZM 4.4459 1.9517C 4.85524 1.9517 5.18707 1.61987 5.18707 1.21053C 5.18707 0.801186 4.85524 0.46935 4.4459 0.46935L 4.4459 1.9517ZM 0 1.9517L 4.4459 1.9517L 4.4459 0.46935L 0 0.46935L 0 1.9517Z"/>
<path id="path3_stroke" d="M 0.518757 0.681155C 0.226394 0.394654 -0.242869 0.399406 -0.529371 0.691769C -0.815873 0.984133 -0.811121 1.4534 -0.518757 1.7399L 0.518757 0.681155ZM 1.23529 2.42105L 0.716537 2.95042C 1.00472 3.23283 1.46587 3.23283 1.75405 2.95042L 1.23529 2.42105ZM 4.22464 0.529371C 4.517 0.242869 4.52175 -0.226394 4.23525 -0.518757C 3.94875 -0.811121 3.47949 -0.815873 3.18713 -0.529371L 4.22464 0.529371ZM -0.518757 1.7399L 0.716537 2.95042L 1.75405 1.89168L 0.518757 0.681155L -0.518757 1.7399ZM 1.75405 2.95042L 4.22464 0.529371L 3.18713 -0.529371L 0.716537 1.89168L 1.75405 2.95042Z"/>
<path id="path4_stroke" d="M 29 58.75C 45.4305 58.75 58.75 45.4305 58.75 29L 57.25 29C 57.25 44.602 44.602 57.25 29 57.25L 29 58.75ZM 58.75 29C 58.75 12.5695 45.4305 -0.75 29 -0.75L 29 0.75C 44.602 0.75 57.25 13.398 57.25 29L 58.75 29ZM 29 -0.75C 12.5695 -0.75 -0.75 12.5695 -0.75 29L 0.75 29C 0.75 13.398 13.398 0.75 29 0.75L 29 -0.75ZM -0.75 29C -0.75 45.4305 12.5695 58.75 29 58.75L 29 57.25C 13.398 57.25 0.75 44.602 0.75 29L -0.75 29Z"/>
</defs>
</svg>
