<?xml version="1.0" encoding="UTF-8"?>
<svg width="35px" height="36px" viewBox="0 0 35 36" version="1.1" xmlns="http://www.w3.org/2000/svg" xmlns:xlink="http://www.w3.org/1999/xlink">
    <defs>
        <linearGradient x1="97.4668063%" y1="0%" x2="0%" y2="100%" id="linearGradient-1">
            <stop stop-color="#000000" offset="0%"></stop>
            <stop stop-color="#000000" stop-opacity="0.221835371" offset="100%"></stop>
        </linearGradient>
    </defs>
    <g stroke="none" stroke-width="1" fill="none" fill-rule="evenodd">
        <g transform="translate(-296.000000, -21.000000)">
            <g>
                <g transform="translate(295.000000, 20.000000)">
                    <path d="M17.0190943,0 L37,0 L37,20.2898019 L37,20.2898019 C37,20.7295588 36.6435066,21.0860522 36.2037497,21.0860522 C35.9903665,21.0860522 35.785912,21.0004063 35.6362372,20.8483215 L16.4515818,1.35476999 L16.4515818,1.35476999 C16.1431199,1.0413415 16.1471461,0.537199742 16.4605746,0.228737861 C16.6095184,0.0821542622 16.8101182,-1.29387935e-15 17.0190943,-1.33226763e-15 Z" id="Rectangle-2-Copy" fill="#007CFF" transform="translate(26.059140, 11.117021) scale(-1, -1) translate(-26.059140, -11.117021) "></path>
                    <polygon id="Rectangle-2-Copy-2" fill="url(#linearGradient-1)" opacity="0.200000003" style="mix-blend-mode: multiply;" transform="translate(25.064516, 19.000000) scale(-1, -1) translate(-25.064516, -19.000000) " points="21.8817204 15.7659574 28.2473118 15.7659574 28.2473118 22.2340426"></polygon>
                    <path d="M1.9008147,15.7659574 L21.8817204,15.7659574 L21.8817204,36.0557593 L21.8817204,36.0557593 C21.8817204,36.4955162 21.525227,36.8520096 21.0854701,36.8520096 C20.872087,36.8520096 20.6676325,36.7663638 20.5179576,36.6142789 L1.33330221,17.1207274 L1.33330221,17.1207274 C1.02484033,16.8072989 1.02886656,16.3031572 1.34229505,15.9946953 C1.49123882,15.8481117 1.69183862,15.7659574 1.9008147,15.7659574 Z" id="Rectangle-2" fill="#5ECFFF"></path>
                </g>
            </g>
        </g>
    </g>
</svg>