<?xml version="1.0" encoding="utf-8"?>
<!-- Svg Vector Icons : http://www.onlinewebfonts.com/icon -->
<!DOCTYPE svg PUBLIC "-//W3C//DTD SVG 1.1//EN" "http://www.w3.org/Graphics/SVG/1.1/DTD/svg11.dtd">
<svg version="1.1" xmlns="http://www.w3.org/2000/svg" xmlns:xlink="http://www.w3.org/1999/xlink" x="0px" y="0px" viewBox="0 0 1000 1000" enable-background="new 0 0 1000 1000" xml:space="preserve">
<metadata> Svg Vector Icons : http://www.onlinewebfonts.com/icon </metadata>
<g><path d="M500,10C229.4,10,10,229.4,10,500c0,270.6,219.4,490,490,490c270.6,0,490-219.4,490-490C990,229.4,770.6,10,500,10z M815,815c-40.9,40.9-88.6,73.1-141.6,95.5c-54.9,23.2-113.2,35-173.4,35c-60.2,0-118.5-11.8-173.4-35C273.6,888,225.9,855.9,185,815s-73-88.6-95.5-141.6c-23.2-54.9-35-113.2-35-173.4c0-60.2,11.8-118.5,35-173.4c22.4-53,54.6-100.7,95.5-141.6s88.6-73,141.6-95.5c54.9-23.2,113.2-35,173.4-35c60.2,0,118.5,11.8,173.4,35c53,22.4,100.7,54.6,141.6,95.5c40.9,40.9,73,88.6,95.5,141.6c23.2,54.9,35,113.2,35,173.4c0,60.2-11.8,118.5-35,173.4C888,726.4,855.9,774.1,815,815z"/></g>
</svg>